%TF.GenerationSoftware,KiCad,Pcbnew,(6.0.0)*%
%TF.CreationDate,2022-01-09T14:56:00-05:00*%
%TF.ProjectId,QuadOpamp-INA_DIP8_Rg18,51756164-4f70-4616-9d70-2d494e415f44,rev?*%
%TF.SameCoordinates,Original*%
%TF.FileFunction,Legend,Bot*%
%TF.FilePolarity,Positive*%
%FSLAX46Y46*%
G04 Gerber Fmt 4.6, Leading zero omitted, Abs format (unit mm)*
G04 Created by KiCad (PCBNEW (6.0.0)) date 2022-01-09 14:56:00*
%MOMM*%
%LPD*%
G01*
G04 APERTURE LIST*
%ADD10C,0.150000*%
%ADD11C,0.120000*%
G04 APERTURE END LIST*
D10*
%TO.C,RG1*%
X117702380Y-87333333D02*
X117226190Y-87000000D01*
X117702380Y-86761904D02*
X116702380Y-86761904D01*
X116702380Y-87142857D01*
X116750000Y-87238095D01*
X116797619Y-87285714D01*
X116892857Y-87333333D01*
X117035714Y-87333333D01*
X117130952Y-87285714D01*
X117178571Y-87238095D01*
X117226190Y-87142857D01*
X117226190Y-86761904D01*
X116750000Y-88285714D02*
X116702380Y-88190476D01*
X116702380Y-88047619D01*
X116750000Y-87904761D01*
X116845238Y-87809523D01*
X116940476Y-87761904D01*
X117130952Y-87714285D01*
X117273809Y-87714285D01*
X117464285Y-87761904D01*
X117559523Y-87809523D01*
X117654761Y-87904761D01*
X117702380Y-88047619D01*
X117702380Y-88142857D01*
X117654761Y-88285714D01*
X117607142Y-88333333D01*
X117273809Y-88333333D01*
X117273809Y-88142857D01*
X117702380Y-89285714D02*
X117702380Y-88714285D01*
X117702380Y-89000000D02*
X116702380Y-89000000D01*
X116845238Y-88904761D01*
X116940476Y-88809523D01*
X116988095Y-88714285D01*
%TO.C,R4*%
X130416666Y-89952380D02*
X130750000Y-89476190D01*
X130988095Y-89952380D02*
X130988095Y-88952380D01*
X130607142Y-88952380D01*
X130511904Y-89000000D01*
X130464285Y-89047619D01*
X130416666Y-89142857D01*
X130416666Y-89285714D01*
X130464285Y-89380952D01*
X130511904Y-89428571D01*
X130607142Y-89476190D01*
X130988095Y-89476190D01*
X129559523Y-89285714D02*
X129559523Y-89952380D01*
X129797619Y-88904761D02*
X130035714Y-89619047D01*
X129416666Y-89619047D01*
%TO.C,R1*%
X123916666Y-86702380D02*
X124250000Y-86226190D01*
X124488095Y-86702380D02*
X124488095Y-85702380D01*
X124107142Y-85702380D01*
X124011904Y-85750000D01*
X123964285Y-85797619D01*
X123916666Y-85892857D01*
X123916666Y-86035714D01*
X123964285Y-86130952D01*
X124011904Y-86178571D01*
X124107142Y-86226190D01*
X124488095Y-86226190D01*
X122964285Y-86702380D02*
X123535714Y-86702380D01*
X123250000Y-86702380D02*
X123250000Y-85702380D01*
X123345238Y-85845238D01*
X123440476Y-85940476D01*
X123535714Y-85988095D01*
%TO.C,C1*%
X120216666Y-86677142D02*
X120264285Y-86724761D01*
X120407142Y-86772380D01*
X120502380Y-86772380D01*
X120645238Y-86724761D01*
X120740476Y-86629523D01*
X120788095Y-86534285D01*
X120835714Y-86343809D01*
X120835714Y-86200952D01*
X120788095Y-86010476D01*
X120740476Y-85915238D01*
X120645238Y-85820000D01*
X120502380Y-85772380D01*
X120407142Y-85772380D01*
X120264285Y-85820000D01*
X120216666Y-85867619D01*
X119264285Y-86772380D02*
X119835714Y-86772380D01*
X119550000Y-86772380D02*
X119550000Y-85772380D01*
X119645238Y-85915238D01*
X119740476Y-86010476D01*
X119835714Y-86058095D01*
%TO.C,JP1*%
X133833333Y-83452380D02*
X133833333Y-84166666D01*
X133880952Y-84309523D01*
X133976190Y-84404761D01*
X134119047Y-84452380D01*
X134214285Y-84452380D01*
X133357142Y-84452380D02*
X133357142Y-83452380D01*
X132976190Y-83452380D01*
X132880952Y-83500000D01*
X132833333Y-83547619D01*
X132785714Y-83642857D01*
X132785714Y-83785714D01*
X132833333Y-83880952D01*
X132880952Y-83928571D01*
X132976190Y-83976190D01*
X133357142Y-83976190D01*
X131833333Y-84452380D02*
X132404761Y-84452380D01*
X132119047Y-84452380D02*
X132119047Y-83452380D01*
X132214285Y-83595238D01*
X132309523Y-83690476D01*
X132404761Y-83738095D01*
%TO.C,R3*%
X121666666Y-89952380D02*
X122000000Y-89476190D01*
X122238095Y-89952380D02*
X122238095Y-88952380D01*
X121857142Y-88952380D01*
X121761904Y-89000000D01*
X121714285Y-89047619D01*
X121666666Y-89142857D01*
X121666666Y-89285714D01*
X121714285Y-89380952D01*
X121761904Y-89428571D01*
X121857142Y-89476190D01*
X122238095Y-89476190D01*
X121333333Y-88952380D02*
X120714285Y-88952380D01*
X121047619Y-89333333D01*
X120904761Y-89333333D01*
X120809523Y-89380952D01*
X120761904Y-89428571D01*
X120714285Y-89523809D01*
X120714285Y-89761904D01*
X120761904Y-89857142D01*
X120809523Y-89904761D01*
X120904761Y-89952380D01*
X121190476Y-89952380D01*
X121285714Y-89904761D01*
X121333333Y-89857142D01*
%TO.C,R8*%
X133166666Y-86202380D02*
X133500000Y-85726190D01*
X133738095Y-86202380D02*
X133738095Y-85202380D01*
X133357142Y-85202380D01*
X133261904Y-85250000D01*
X133214285Y-85297619D01*
X133166666Y-85392857D01*
X133166666Y-85535714D01*
X133214285Y-85630952D01*
X133261904Y-85678571D01*
X133357142Y-85726190D01*
X133738095Y-85726190D01*
X132595238Y-85630952D02*
X132690476Y-85583333D01*
X132738095Y-85535714D01*
X132785714Y-85440476D01*
X132785714Y-85392857D01*
X132738095Y-85297619D01*
X132690476Y-85250000D01*
X132595238Y-85202380D01*
X132404761Y-85202380D01*
X132309523Y-85250000D01*
X132261904Y-85297619D01*
X132214285Y-85392857D01*
X132214285Y-85440476D01*
X132261904Y-85535714D01*
X132309523Y-85583333D01*
X132404761Y-85630952D01*
X132595238Y-85630952D01*
X132690476Y-85678571D01*
X132738095Y-85726190D01*
X132785714Y-85821428D01*
X132785714Y-86011904D01*
X132738095Y-86107142D01*
X132690476Y-86154761D01*
X132595238Y-86202380D01*
X132404761Y-86202380D01*
X132309523Y-86154761D01*
X132261904Y-86107142D01*
X132214285Y-86011904D01*
X132214285Y-85821428D01*
X132261904Y-85726190D01*
X132309523Y-85678571D01*
X132404761Y-85630952D01*
D11*
%TO.C,R4*%
X127372936Y-88665000D02*
X127827064Y-88665000D01*
X127372936Y-90135000D02*
X127827064Y-90135000D01*
%TO.C,R1*%
X126072936Y-85465000D02*
X126527064Y-85465000D01*
X126072936Y-86935000D02*
X126527064Y-86935000D01*
%TO.C,C1*%
X120311252Y-88735000D02*
X119788748Y-88735000D01*
X120311252Y-87265000D02*
X119788748Y-87265000D01*
%TO.C,JP1*%
X129100000Y-83700000D02*
X129100000Y-84300000D01*
X129800000Y-85000000D02*
X131200000Y-85000000D01*
X131200000Y-83000000D02*
X129800000Y-83000000D01*
X131900000Y-84300000D02*
X131900000Y-83700000D01*
X131900000Y-83700000D02*
G75*
G03*
X131200000Y-83000000I-699999J1D01*
G01*
X129100000Y-84300000D02*
G75*
G03*
X129800000Y-85000000I699999J-1D01*
G01*
X129800000Y-83000000D02*
G75*
G03*
X129100000Y-83700000I-1J-699999D01*
G01*
X131200000Y-85000000D02*
G75*
G03*
X131900000Y-84300000I1J699999D01*
G01*
%TO.C,R3*%
X124327064Y-88665000D02*
X123872936Y-88665000D01*
X124327064Y-90135000D02*
X123872936Y-90135000D01*
%TO.C,R8*%
X130185436Y-86985000D02*
X130639564Y-86985000D01*
X130185436Y-85515000D02*
X130639564Y-85515000D01*
%TD*%
M02*
