M48
; DRILL file {KiCad (6.0.0)} date Sun Jan  9 14:50:47 2022
; FORMAT={-:-/ absolute / inch / decimal}
; #@! TF.CreationDate,2022-01-09T14:50:47-05:00
; #@! TF.GenerationSoftware,Kicad,Pcbnew,(6.0.0)
; #@! TF.FileFunction,Plated,1,2,PTH
FMAT,2
INCH
; #@! TA.AperFunction,Plated,PTH,ViaDrill
T1C0.0157
; #@! TA.AperFunction,Plated,PTH,ComponentDrill
T2C0.0315
; #@! TA.AperFunction,Plated,PTH,ComponentDrill
T3C0.0866
%
G90
G05
T1
X4.6063Y-3.2776
X4.6063Y-3.3776
X4.6063Y-3.5776
X4.6063Y-3.6776
X4.6524Y-3.2382
X4.6524Y-3.7008
X4.6654Y-3.376
X4.6654Y-3.5433
X4.7524Y-3.2382
X4.7524Y-3.7008
X4.7975Y-3.4626
X4.8524Y-3.2382
X4.8524Y-3.7008
X4.9016Y-3.5531
X4.9114Y-3.3661
X4.9213Y-3.2382
X4.9524Y-3.7008
X4.9705Y-3.4449
X5.0098Y-3.435
X5.0213Y-3.2382
X5.031Y-3.4682
X5.0492Y-3.7008
X5.0984Y-3.6024
X5.102Y-3.5467
X5.1213Y-3.2382
X5.1492Y-3.7008
X5.1536Y-3.4545
X5.1673Y-3.6516
X5.1839Y-3.2382
X5.217Y-3.414
X5.2244Y-3.5335
X5.2839Y-3.2382
X5.2854Y-3.5531
X5.3282Y-3.2728
X5.3282Y-3.3728
X5.3282Y-3.4728
X5.3282Y-3.5728
T2
X4.7362Y-3.3102
X4.7362Y-3.6102
X4.8362Y-3.3102
X4.8362Y-3.6102
X4.9362Y-3.3102
X4.9362Y-3.6102
X5.0362Y-3.3102
X5.0362Y-3.6102
T3
X5.2756Y-3.6614
T0
M30
