%TF.GenerationSoftware,KiCad,Pcbnew,(6.0.0)*%
%TF.CreationDate,2022-01-09T14:56:00-05:00*%
%TF.ProjectId,QuadOpamp-INA_DIP8_Rg18,51756164-4f70-4616-9d70-2d494e415f44,rev?*%
%TF.SameCoordinates,Original*%
%TF.FileFunction,Copper,L1,Top*%
%TF.FilePolarity,Positive*%
%FSLAX46Y46*%
G04 Gerber Fmt 4.6, Leading zero omitted, Abs format (unit mm)*
G04 Created by KiCad (PCBNEW (6.0.0)) date 2022-01-09 14:56:00*
%MOMM*%
%LPD*%
G01*
G04 APERTURE LIST*
G04 Aperture macros list*
%AMRoundRect*
0 Rectangle with rounded corners*
0 $1 Rounding radius*
0 $2 $3 $4 $5 $6 $7 $8 $9 X,Y pos of 4 corners*
0 Add a 4 corners polygon primitive as box body*
4,1,4,$2,$3,$4,$5,$6,$7,$8,$9,$2,$3,0*
0 Add four circle primitives for the rounded corners*
1,1,$1+$1,$2,$3*
1,1,$1+$1,$4,$5*
1,1,$1+$1,$6,$7*
1,1,$1+$1,$8,$9*
0 Add four rect primitives between the rounded corners*
20,1,$1+$1,$2,$3,$4,$5,0*
20,1,$1+$1,$4,$5,$6,$7,0*
20,1,$1+$1,$6,$7,$8,$9,0*
20,1,$1+$1,$8,$9,$2,$3,0*%
G04 Aperture macros list end*
%TA.AperFunction,SMDPad,CuDef*%
%ADD10RoundRect,0.250000X0.262500X0.450000X-0.262500X0.450000X-0.262500X-0.450000X0.262500X-0.450000X0*%
%TD*%
%TA.AperFunction,SMDPad,CuDef*%
%ADD11RoundRect,0.250000X-0.250000X-0.475000X0.250000X-0.475000X0.250000X0.475000X-0.250000X0.475000X0*%
%TD*%
%TA.AperFunction,SMDPad,CuDef*%
%ADD12RoundRect,0.250000X-0.262500X-0.450000X0.262500X-0.450000X0.262500X0.450000X-0.262500X0.450000X0*%
%TD*%
%TA.AperFunction,SMDPad,CuDef*%
%ADD13RoundRect,0.250000X-0.450000X0.262500X-0.450000X-0.262500X0.450000X-0.262500X0.450000X0.262500X0*%
%TD*%
%TA.AperFunction,SMDPad,CuDef*%
%ADD14RoundRect,0.100000X-0.637500X-0.100000X0.637500X-0.100000X0.637500X0.100000X-0.637500X0.100000X0*%
%TD*%
%TA.AperFunction,ComponentPad*%
%ADD15C,3.800000*%
%TD*%
%TA.AperFunction,ComponentPad*%
%ADD16R,1.600000X1.600000*%
%TD*%
%TA.AperFunction,ComponentPad*%
%ADD17O,1.600000X1.600000*%
%TD*%
%TA.AperFunction,SMDPad,CuDef*%
%ADD18RoundRect,0.250000X0.450000X-0.262500X0.450000X0.262500X-0.450000X0.262500X-0.450000X-0.262500X0*%
%TD*%
%TA.AperFunction,ViaPad*%
%ADD19C,0.800000*%
%TD*%
%TA.AperFunction,Conductor*%
%ADD20C,0.250000*%
%TD*%
%TA.AperFunction,Conductor*%
%ADD21C,0.200000*%
%TD*%
G04 APERTURE END LIST*
D10*
%TO.P,R6,1*%
%TO.N,Net-(R6-Pad1)*%
X121700000Y-89750000D03*
%TO.P,R6,2*%
%TO.N,RG1*%
X119875000Y-89750000D03*
%TD*%
D11*
%TO.P,C2,1*%
%TO.N,-5V*%
X132000000Y-88000000D03*
%TO.P,C2,2*%
%TO.N,GND*%
X133900000Y-88000000D03*
%TD*%
D12*
%TO.P,R5,1*%
%TO.N,RG8*%
X119887500Y-86200000D03*
%TO.P,R5,2*%
%TO.N,Net-(R1-Pad1)*%
X121712500Y-86200000D03*
%TD*%
D13*
%TO.P,R2,1*%
%TO.N,Net-(R1-Pad2)*%
X131400000Y-89500000D03*
%TO.P,R2,2*%
%TO.N,Net-(R2-Pad2)*%
X131400000Y-91325000D03*
%TD*%
D14*
%TO.P,U1,1*%
%TO.N,Net-(R1-Pad1)*%
X123637500Y-85970000D03*
%TO.P,U1,2,-*%
%TO.N,RG8*%
X123637500Y-86620000D03*
%TO.P,U1,3,+*%
%TO.N,Vin-*%
X123637500Y-87270000D03*
%TO.P,U1,4,V+*%
%TO.N,+5V*%
X123637500Y-87920000D03*
%TO.P,U1,5,+*%
%TO.N,Vin+*%
X123637500Y-88570000D03*
%TO.P,U1,6,-*%
%TO.N,RG1*%
X123637500Y-89220000D03*
%TO.P,U1,7*%
%TO.N,Net-(R6-Pad1)*%
X123637500Y-89870000D03*
%TO.P,U1,8*%
%TO.N,Net-(R2-Pad2)*%
X129362500Y-89870000D03*
%TO.P,U1,9,-*%
%TO.N,Net-(R1-Pad2)*%
X129362500Y-89220000D03*
%TO.P,U1,10,+*%
%TO.N,Net-(R3-Pad2)*%
X129362500Y-88570000D03*
%TO.P,U1,11,V-*%
%TO.N,-5V*%
X129362500Y-87920000D03*
%TO.P,U1,12,+*%
%TO.N,Net-(R2-Pad2)*%
X129362500Y-87270000D03*
%TO.P,U1,13,-*%
%TO.N,Net-(R7-Pad1)*%
X129362500Y-86620000D03*
%TO.P,U1,14*%
%TO.N,Vout*%
X129362500Y-85970000D03*
%TD*%
D13*
%TO.P,RG1,1*%
%TO.N,RG8*%
X117750000Y-87087500D03*
%TO.P,RG1,2*%
%TO.N,RG1*%
X117750000Y-88912500D03*
%TD*%
D15*
%TO.P,H1,1,1*%
%TO.N,GND*%
X134000000Y-93000000D03*
%TD*%
D16*
%TO.P,J1,1,Pin_1*%
%TO.N,RG1*%
X120300000Y-91700000D03*
D17*
%TO.P,J1,2,Pin_2*%
%TO.N,Vin-*%
X122840000Y-91700000D03*
%TO.P,J1,3,Pin_3*%
%TO.N,Vin+*%
X125380000Y-91700000D03*
%TO.P,J1,4,Pin_4*%
%TO.N,-5V*%
X127920000Y-91700000D03*
%TO.P,J1,5,Pin_5*%
%TO.N,REF*%
X127920000Y-84080000D03*
%TO.P,J1,6,Pin_6*%
%TO.N,Vout*%
X125380000Y-84080000D03*
%TO.P,J1,7,Pin_7*%
%TO.N,+5V*%
X122840000Y-84080000D03*
%TO.P,J1,8,Pin_8*%
%TO.N,RG8*%
X120300000Y-84080000D03*
%TD*%
D18*
%TO.P,R7,1*%
%TO.N,Net-(R7-Pad1)*%
X131400000Y-86525000D03*
%TO.P,R7,2*%
%TO.N,Vout*%
X131400000Y-84700000D03*
%TD*%
D19*
%TO.N,Net-(R1-Pad1)*%
X124750000Y-85500000D03*
%TO.N,Net-(R1-Pad2)*%
X127250000Y-87250000D03*
%TO.N,Net-(R2-Pad2)*%
X130900500Y-87744150D03*
X129591210Y-90085485D03*
%TO.N,Net-(R6-Pad1)*%
X124500000Y-90250000D03*
%TO.N,Net-(R3-Pad2)*%
X127788000Y-88092353D03*
%TO.N,Net-(R7-Pad1)*%
X132510799Y-86716523D03*
%TO.N,GND*%
X117000000Y-83250000D03*
X130080000Y-82250000D03*
X123250000Y-94000000D03*
X123250000Y-82250000D03*
X128250000Y-94000000D03*
X127540000Y-82250000D03*
X120710000Y-82250000D03*
X125000000Y-82250000D03*
X135335786Y-85670000D03*
X126250000Y-87500000D03*
X131670000Y-82250000D03*
X130790000Y-94000000D03*
X134210000Y-82250000D03*
X120710000Y-94000000D03*
X117000000Y-90870000D03*
X117000000Y-93410000D03*
X129500000Y-91500000D03*
X118170000Y-82250000D03*
X131250000Y-92750000D03*
X118170000Y-94000000D03*
X135335786Y-88210000D03*
X125790000Y-94000000D03*
X134250000Y-90250000D03*
X118500000Y-90000000D03*
X117000000Y-85790000D03*
X135335786Y-83130000D03*
X118500000Y-85750000D03*
X135335786Y-90750000D03*
%TO.N,+5V*%
X121855645Y-87949020D03*
%TO.N,-5V*%
X132699500Y-89750000D03*
%TD*%
D20*
%TO.N,Net-(R1-Pad1)*%
X124750000Y-85500000D02*
X124107500Y-85500000D01*
X121942500Y-85970000D02*
X121712500Y-86200000D01*
X123637500Y-85970000D02*
X121942500Y-85970000D01*
X124107500Y-85500000D02*
X123637500Y-85970000D01*
%TO.N,Net-(R1-Pad2)*%
X127000000Y-88470000D02*
X127000000Y-87500000D01*
X129362500Y-89220000D02*
X127750000Y-89220000D01*
X129362500Y-89220000D02*
X131120000Y-89220000D01*
X127000000Y-87500000D02*
X127250000Y-87250000D01*
X131120000Y-89220000D02*
X131400000Y-89500000D01*
X127750000Y-89220000D02*
X127000000Y-88470000D01*
%TO.N,Net-(R2-Pad2)*%
X131400000Y-91325000D02*
X130817500Y-91325000D01*
X130426350Y-87270000D02*
X130900500Y-87744150D01*
X129362500Y-87270000D02*
X130426350Y-87270000D01*
X130817500Y-91325000D02*
X129362500Y-89870000D01*
%TO.N,Net-(R6-Pad1)*%
X124500000Y-90250000D02*
X124017500Y-90250000D01*
X124017500Y-90250000D02*
X123637500Y-89870000D01*
X121700000Y-89400000D02*
X122170000Y-89870000D01*
X122170000Y-89870000D02*
X123637500Y-89870000D01*
%TO.N,Net-(R3-Pad2)*%
X128320000Y-88570000D02*
X129362500Y-88570000D01*
X127788000Y-88092353D02*
X127842353Y-88092353D01*
X127842353Y-88092353D02*
X128320000Y-88570000D01*
%TO.N,RG1*%
X119875000Y-89750000D02*
X119875000Y-89125000D01*
X119662500Y-88912500D02*
X117750000Y-88912500D01*
X119875000Y-91275000D02*
X120300000Y-91700000D01*
X123637500Y-89220000D02*
X122720000Y-89220000D01*
X122225480Y-88725480D02*
X120899520Y-88725480D01*
X119875000Y-89125000D02*
X119662500Y-88912500D01*
X120899520Y-88725480D02*
X119875000Y-89750000D01*
X122720000Y-89220000D02*
X122225480Y-88725480D01*
X119875000Y-89400000D02*
X119875000Y-91275000D01*
%TO.N,RG8*%
X119887500Y-86200000D02*
X119887500Y-84492500D01*
X122817493Y-86620000D02*
X122212973Y-87224520D01*
X120912020Y-87224520D02*
X119887500Y-86200000D01*
X122212973Y-87224520D02*
X120912020Y-87224520D01*
X119887500Y-86862500D02*
X119662500Y-87087500D01*
X123637500Y-86620000D02*
X122817493Y-86620000D01*
X119887500Y-86200000D02*
X119887500Y-86862500D01*
X119662500Y-87087500D02*
X117750000Y-87087500D01*
X119887500Y-84492500D02*
X120300000Y-84080000D01*
%TO.N,Net-(R7-Pad1)*%
X129362500Y-86620000D02*
X131305000Y-86620000D01*
X131591523Y-86716523D02*
X131400000Y-86525000D01*
X132510799Y-86716523D02*
X131591523Y-86716523D01*
X131305000Y-86620000D02*
X131400000Y-86525000D01*
%TO.N,Vout*%
X129362500Y-85970000D02*
X127270000Y-85970000D01*
X129362500Y-85970000D02*
X130130000Y-85970000D01*
X130130000Y-85970000D02*
X131400000Y-84700000D01*
X127270000Y-85970000D02*
X125380000Y-84080000D01*
%TO.N,GND*%
X134000000Y-93000000D02*
X134000000Y-90500000D01*
X134000000Y-90500000D02*
X134250000Y-90250000D01*
X131790000Y-93000000D02*
X130790000Y-94000000D01*
X134000000Y-93000000D02*
X131790000Y-93000000D01*
D21*
%TO.N,Vin-*%
X123939511Y-92799511D02*
X125835433Y-92799511D01*
X122840000Y-91700000D02*
X123939511Y-92799511D01*
X124674520Y-88174520D02*
X124674520Y-87654514D01*
X126479511Y-89979511D02*
X124674520Y-88174520D01*
X125835433Y-92799511D02*
X126479511Y-92155433D01*
X126479511Y-92155433D02*
X126479511Y-89979511D01*
X124674520Y-87654514D02*
X124290006Y-87270000D01*
X124290006Y-87270000D02*
X123637500Y-87270000D01*
%TO.N,Vin+*%
X124290006Y-88570000D02*
X125380000Y-89659994D01*
X125380000Y-89659994D02*
X125380000Y-91700000D01*
X123637500Y-88570000D02*
X124290006Y-88570000D01*
D20*
%TO.N,+5V*%
X123608480Y-87949020D02*
X123637500Y-87920000D01*
X121855645Y-87949020D02*
X123608480Y-87949020D01*
%TO.N,-5V*%
X130440180Y-88308444D02*
X130440180Y-88309820D01*
X131337020Y-88662980D02*
X130793341Y-88662980D01*
X132000000Y-88000000D02*
X131337020Y-88662980D01*
X132699500Y-88699500D02*
X132000000Y-88000000D01*
X129362500Y-87920000D02*
X130051736Y-87920000D01*
X130051736Y-87920000D02*
X130440180Y-88308444D01*
X130324511Y-88194150D02*
X130324511Y-88192775D01*
X129442500Y-88000000D02*
X129362500Y-87920000D01*
X130440180Y-88309820D02*
X130324511Y-88194150D01*
X132699500Y-89750000D02*
X132699500Y-88699500D01*
X130793341Y-88662980D02*
X130440180Y-88309820D01*
%TD*%
%TA.AperFunction,Conductor*%
%TO.N,GND*%
G36*
X134073142Y-81752383D02*
G01*
X134085786Y-81754898D01*
X134097765Y-81752515D01*
X134109979Y-81752515D01*
X134109979Y-81753149D01*
X134120554Y-81752486D01*
X134325997Y-81767180D01*
X134343499Y-81769696D01*
X134541514Y-81812772D01*
X134570148Y-81819001D01*
X134587124Y-81823985D01*
X134804456Y-81905046D01*
X134820549Y-81912396D01*
X135024126Y-82023557D01*
X135039009Y-82033122D01*
X135224693Y-82172123D01*
X135238064Y-82183709D01*
X135402077Y-82347722D01*
X135413663Y-82361093D01*
X135552664Y-82546777D01*
X135562229Y-82561660D01*
X135673390Y-82765237D01*
X135680740Y-82781330D01*
X135761801Y-82998662D01*
X135766785Y-83015638D01*
X135813047Y-83228297D01*
X135816089Y-83242282D01*
X135818606Y-83259789D01*
X135824072Y-83336200D01*
X135833300Y-83465229D01*
X135832637Y-83475807D01*
X135833271Y-83475807D01*
X135833271Y-83488021D01*
X135830888Y-83500000D01*
X135833271Y-83511980D01*
X135833403Y-83512644D01*
X135835786Y-83536835D01*
X135835786Y-91447215D01*
X135816101Y-91514254D01*
X135763297Y-91560009D01*
X135694139Y-91569953D01*
X135664586Y-91559030D01*
X135657000Y-91559076D01*
X135647205Y-91564927D01*
X132566653Y-94645479D01*
X132544840Y-94685427D01*
X132495435Y-94734832D01*
X132436008Y-94750000D01*
X118286835Y-94750000D01*
X118262644Y-94747617D01*
X118261980Y-94747485D01*
X118250000Y-94745102D01*
X118238021Y-94747485D01*
X118225807Y-94747485D01*
X118225807Y-94746851D01*
X118215232Y-94747514D01*
X118009789Y-94732820D01*
X117992287Y-94730304D01*
X117765639Y-94680999D01*
X117748662Y-94676015D01*
X117531330Y-94594954D01*
X117515237Y-94587604D01*
X117311660Y-94476443D01*
X117296777Y-94466878D01*
X117111093Y-94327877D01*
X117097722Y-94316291D01*
X116933709Y-94152278D01*
X116922123Y-94138907D01*
X116783122Y-93953223D01*
X116773557Y-93938340D01*
X116662396Y-93734763D01*
X116655046Y-93718670D01*
X116573985Y-93501338D01*
X116569001Y-93484362D01*
X116525354Y-93283721D01*
X116519696Y-93257713D01*
X116517179Y-93240206D01*
X116502486Y-93034768D01*
X116503149Y-93024193D01*
X116502515Y-93024193D01*
X116502515Y-93011979D01*
X116504898Y-93000000D01*
X116502383Y-92987356D01*
X116500000Y-92963165D01*
X116500000Y-88602623D01*
X116799500Y-88602623D01*
X116799501Y-89222376D01*
X116806149Y-89283580D01*
X116856474Y-89417824D01*
X116861769Y-89424889D01*
X116861770Y-89424891D01*
X116934691Y-89522188D01*
X116942454Y-89532546D01*
X116949519Y-89537841D01*
X117050109Y-89613230D01*
X117050111Y-89613231D01*
X117057176Y-89618526D01*
X117191420Y-89668851D01*
X117252623Y-89675500D01*
X117749926Y-89675500D01*
X118247376Y-89675499D01*
X118308580Y-89668851D01*
X118442824Y-89618526D01*
X118449889Y-89613231D01*
X118449891Y-89613230D01*
X118550481Y-89537841D01*
X118557546Y-89532546D01*
X118565309Y-89522188D01*
X118638230Y-89424891D01*
X118638231Y-89424889D01*
X118643526Y-89417824D01*
X118646626Y-89409555D01*
X118646628Y-89409551D01*
X118662028Y-89368472D01*
X118703993Y-89312609D01*
X118769498Y-89288301D01*
X118778137Y-89288000D01*
X118988000Y-89288000D01*
X119055039Y-89307685D01*
X119100794Y-89360489D01*
X119112000Y-89412000D01*
X119112001Y-89855388D01*
X119112001Y-90247376D01*
X119118649Y-90308580D01*
X119168974Y-90442824D01*
X119174269Y-90449889D01*
X119174270Y-90449891D01*
X119249585Y-90550382D01*
X119254954Y-90557546D01*
X119262019Y-90562841D01*
X119262020Y-90562842D01*
X119275957Y-90573287D01*
X119317798Y-90629244D01*
X119322745Y-90698938D01*
X119304696Y-90741404D01*
X119264034Y-90802260D01*
X119260570Y-90819676D01*
X119256079Y-90842254D01*
X119249500Y-90875326D01*
X119249500Y-92524674D01*
X119264034Y-92597740D01*
X119270820Y-92607896D01*
X119311763Y-92669172D01*
X119319399Y-92680601D01*
X119402260Y-92735966D01*
X119436313Y-92742740D01*
X119469347Y-92749311D01*
X119469350Y-92749311D01*
X119475326Y-92750500D01*
X121124674Y-92750500D01*
X121130650Y-92749311D01*
X121130653Y-92749311D01*
X121163687Y-92742740D01*
X121197740Y-92735966D01*
X121280601Y-92680601D01*
X121288238Y-92669172D01*
X121329180Y-92607896D01*
X121335966Y-92597740D01*
X121350500Y-92524674D01*
X121350500Y-90875326D01*
X121345202Y-90848692D01*
X121351429Y-90779100D01*
X121394292Y-90723923D01*
X121466819Y-90700500D01*
X121983857Y-90700499D01*
X122009876Y-90700499D01*
X122013214Y-90700136D01*
X122013222Y-90700136D01*
X122046966Y-90696471D01*
X122115738Y-90708802D01*
X122166927Y-90756357D01*
X122184280Y-90824038D01*
X122162287Y-90890356D01*
X122138051Y-90916385D01*
X122106176Y-90942012D01*
X122106173Y-90942015D01*
X122101447Y-90945815D01*
X121969024Y-91103630D01*
X121869776Y-91284162D01*
X121867942Y-91289944D01*
X121867941Y-91289946D01*
X121809317Y-91474753D01*
X121807484Y-91480532D01*
X121800881Y-91539401D01*
X121790172Y-91634877D01*
X121784520Y-91685262D01*
X121801759Y-91890553D01*
X121858544Y-92088586D01*
X121861316Y-92093981D01*
X121861317Y-92093982D01*
X121892370Y-92154405D01*
X121952712Y-92271818D01*
X121956478Y-92276569D01*
X121956480Y-92276572D01*
X122068779Y-92418258D01*
X122080677Y-92433270D01*
X122085296Y-92437201D01*
X122232950Y-92562865D01*
X122232955Y-92562869D01*
X122237564Y-92566791D01*
X122417398Y-92667297D01*
X122613329Y-92730959D01*
X122619347Y-92731677D01*
X122619349Y-92731677D01*
X122761410Y-92748616D01*
X122817894Y-92755351D01*
X122823938Y-92754886D01*
X122823939Y-92754886D01*
X122896391Y-92749311D01*
X123023300Y-92739546D01*
X123135415Y-92708243D01*
X123215881Y-92685777D01*
X123215884Y-92685776D01*
X123221725Y-92684145D01*
X123224020Y-92682986D01*
X123292434Y-92677199D01*
X123355334Y-92711016D01*
X123655880Y-93011562D01*
X123668357Y-93027011D01*
X123671130Y-93030059D01*
X123676686Y-93038663D01*
X123684731Y-93045005D01*
X123700687Y-93057584D01*
X123704655Y-93061110D01*
X123704736Y-93061014D01*
X123708638Y-93064320D01*
X123712257Y-93067939D01*
X123726625Y-93078207D01*
X123731266Y-93081690D01*
X123768322Y-93110903D01*
X123776298Y-93113704D01*
X123783180Y-93118622D01*
X123792999Y-93121558D01*
X123793000Y-93121559D01*
X123828345Y-93132129D01*
X123833901Y-93133934D01*
X123856735Y-93141952D01*
X123878417Y-93149566D01*
X123883555Y-93150011D01*
X123886237Y-93150011D01*
X123888463Y-93150107D01*
X123888899Y-93150237D01*
X123888897Y-93150292D01*
X123889131Y-93150307D01*
X123894974Y-93152054D01*
X123905216Y-93151652D01*
X123905218Y-93151652D01*
X123944540Y-93150107D01*
X123949407Y-93150011D01*
X125784824Y-93150011D01*
X125804556Y-93152111D01*
X125808676Y-93152305D01*
X125818694Y-93154462D01*
X125849034Y-93150871D01*
X125854342Y-93150558D01*
X125854332Y-93150433D01*
X125859437Y-93150011D01*
X125864548Y-93150011D01*
X125881972Y-93147111D01*
X125887751Y-93146289D01*
X125924393Y-93141952D01*
X125924395Y-93141951D01*
X125934571Y-93140747D01*
X125942191Y-93137088D01*
X125950536Y-93135699D01*
X125959551Y-93130835D01*
X125959556Y-93130833D01*
X125992056Y-93113296D01*
X125997217Y-93110666D01*
X126039759Y-93090237D01*
X126043707Y-93086919D01*
X126045613Y-93085013D01*
X126047244Y-93083517D01*
X126047653Y-93083297D01*
X126047689Y-93083336D01*
X126047861Y-93083185D01*
X126053227Y-93080289D01*
X126084355Y-93046615D01*
X126086926Y-93043834D01*
X126090301Y-93040325D01*
X126390615Y-92740011D01*
X126691562Y-92439063D01*
X126707002Y-92426593D01*
X126710051Y-92423819D01*
X126718663Y-92418258D01*
X126737587Y-92394253D01*
X126741112Y-92390286D01*
X126741016Y-92390205D01*
X126744325Y-92386300D01*
X126747939Y-92382686D01*
X126750908Y-92378532D01*
X126750911Y-92378528D01*
X126758197Y-92368332D01*
X126761703Y-92363662D01*
X126784555Y-92334674D01*
X126790903Y-92326622D01*
X126793704Y-92318646D01*
X126798622Y-92311764D01*
X126804046Y-92293626D01*
X126842112Y-92235039D01*
X126905811Y-92206331D01*
X126974919Y-92216618D01*
X127027075Y-92261980D01*
X127029942Y-92266429D01*
X127032712Y-92271818D01*
X127107322Y-92365953D01*
X127148779Y-92418258D01*
X127160677Y-92433270D01*
X127165296Y-92437201D01*
X127312950Y-92562865D01*
X127312955Y-92562869D01*
X127317564Y-92566791D01*
X127497398Y-92667297D01*
X127693329Y-92730959D01*
X127699347Y-92731677D01*
X127699349Y-92731677D01*
X127841410Y-92748616D01*
X127897894Y-92755351D01*
X127903938Y-92754886D01*
X127903939Y-92754886D01*
X127976391Y-92749311D01*
X128103300Y-92739546D01*
X128188596Y-92715731D01*
X128295885Y-92685776D01*
X128295889Y-92685774D01*
X128301725Y-92684145D01*
X128485610Y-92591258D01*
X128647951Y-92464424D01*
X128651907Y-92459840D01*
X128651911Y-92459837D01*
X128778602Y-92313062D01*
X128782564Y-92308472D01*
X128800688Y-92276569D01*
X128881327Y-92134618D01*
X128884323Y-92129344D01*
X128918791Y-92025730D01*
X128947439Y-91939611D01*
X128947439Y-91939610D01*
X128949351Y-91933863D01*
X128954823Y-91890553D01*
X128974736Y-91732919D01*
X128974736Y-91732915D01*
X128975171Y-91729474D01*
X128975583Y-91700000D01*
X128961761Y-91559030D01*
X128956072Y-91501006D01*
X128956072Y-91501004D01*
X128955480Y-91494970D01*
X128906206Y-91331768D01*
X128897688Y-91303555D01*
X128895935Y-91297749D01*
X128815311Y-91146115D01*
X128802065Y-91121203D01*
X128802064Y-91121201D01*
X128799218Y-91115849D01*
X128669011Y-90956200D01*
X128662075Y-90950462D01*
X128514946Y-90828746D01*
X128514945Y-90828745D01*
X128510275Y-90824882D01*
X128383540Y-90756357D01*
X128334393Y-90729783D01*
X128334391Y-90729782D01*
X128329055Y-90726897D01*
X128319991Y-90724091D01*
X128138046Y-90667770D01*
X128138047Y-90667770D01*
X128132254Y-90665977D01*
X127927369Y-90644443D01*
X127921336Y-90644992D01*
X127921332Y-90644992D01*
X127795721Y-90656424D01*
X127722203Y-90663114D01*
X127716390Y-90664825D01*
X127716389Y-90664825D01*
X127565480Y-90709240D01*
X127524572Y-90721280D01*
X127454831Y-90757740D01*
X127347374Y-90813917D01*
X127347370Y-90813920D01*
X127342002Y-90816726D01*
X127337279Y-90820523D01*
X127337278Y-90820524D01*
X127213504Y-90920041D01*
X127181447Y-90945815D01*
X127049024Y-91103630D01*
X127046830Y-91101789D01*
X127002130Y-91138242D01*
X126932706Y-91146115D01*
X126870045Y-91115205D01*
X126834043Y-91055324D01*
X126830011Y-91023959D01*
X126830011Y-90030125D01*
X126832112Y-90010390D01*
X126832306Y-90006268D01*
X126834463Y-89996251D01*
X126830871Y-89965904D01*
X126830558Y-89960601D01*
X126830432Y-89960611D01*
X126830011Y-89955519D01*
X126830011Y-89950396D01*
X126827111Y-89932972D01*
X126826289Y-89927193D01*
X126821952Y-89890551D01*
X126821951Y-89890549D01*
X126820747Y-89880373D01*
X126817088Y-89872753D01*
X126815699Y-89864408D01*
X126810835Y-89855393D01*
X126810833Y-89855388D01*
X126793296Y-89822888D01*
X126790666Y-89817727D01*
X126770237Y-89775185D01*
X126766919Y-89771237D01*
X126765013Y-89769331D01*
X126763517Y-89767700D01*
X126763297Y-89767291D01*
X126763336Y-89767255D01*
X126763185Y-89767083D01*
X126760289Y-89761717D01*
X126723835Y-89728019D01*
X126720326Y-89724644D01*
X125061339Y-88065657D01*
X125027854Y-88004334D01*
X125025020Y-87977976D01*
X125025020Y-87705123D01*
X125027120Y-87685391D01*
X125027314Y-87681271D01*
X125029471Y-87671253D01*
X125025880Y-87640913D01*
X125025567Y-87635605D01*
X125025442Y-87635615D01*
X125025020Y-87630510D01*
X125025020Y-87625399D01*
X125022120Y-87607975D01*
X125021298Y-87602196D01*
X125016961Y-87565554D01*
X125016960Y-87565552D01*
X125015756Y-87555376D01*
X125012097Y-87547756D01*
X125010708Y-87539411D01*
X125005844Y-87530396D01*
X125005842Y-87530391D01*
X124988305Y-87497891D01*
X124985675Y-87492730D01*
X124965246Y-87450188D01*
X124961928Y-87446240D01*
X124960022Y-87444334D01*
X124958526Y-87442703D01*
X124958306Y-87442294D01*
X124958345Y-87442258D01*
X124958194Y-87442086D01*
X124955298Y-87436720D01*
X124918844Y-87403022D01*
X124915335Y-87399647D01*
X124649073Y-87133385D01*
X124618339Y-87082500D01*
X124616762Y-87077424D01*
X124615358Y-87067888D01*
X124581872Y-86999685D01*
X124569996Y-86930832D01*
X124581777Y-86890581D01*
X124611309Y-86830166D01*
X124611309Y-86830165D01*
X124615536Y-86821518D01*
X124616993Y-86811533D01*
X124624851Y-86757669D01*
X124624851Y-86757664D01*
X124625500Y-86753218D01*
X124625500Y-86486782D01*
X124615358Y-86417888D01*
X124581872Y-86349685D01*
X124569996Y-86280832D01*
X124581777Y-86240581D01*
X124587031Y-86229834D01*
X124592111Y-86219441D01*
X124639235Y-86167857D01*
X124705460Y-86149912D01*
X124758735Y-86150749D01*
X124811025Y-86151571D01*
X124811028Y-86151571D01*
X124818495Y-86151688D01*
X124825776Y-86150020D01*
X124825780Y-86150020D01*
X124964681Y-86118207D01*
X124971968Y-86116538D01*
X125112625Y-86045795D01*
X125118306Y-86040943D01*
X125118309Y-86040941D01*
X125226666Y-85948395D01*
X125226667Y-85948394D01*
X125232348Y-85943542D01*
X125324224Y-85815683D01*
X125382950Y-85669598D01*
X125385861Y-85649144D01*
X125404562Y-85517744D01*
X125404562Y-85517740D01*
X125405134Y-85513723D01*
X125405278Y-85500000D01*
X125403243Y-85483181D01*
X125387262Y-85351119D01*
X125387261Y-85351115D01*
X125386363Y-85343694D01*
X125367540Y-85293880D01*
X125362257Y-85224212D01*
X125395479Y-85162746D01*
X125456658Y-85128998D01*
X125474017Y-85126416D01*
X125563300Y-85119546D01*
X125747739Y-85068050D01*
X125817600Y-85068981D01*
X125868764Y-85099801D01*
X126418106Y-85649144D01*
X126966805Y-86197843D01*
X126981909Y-86216545D01*
X126982868Y-86217599D01*
X126988428Y-86226210D01*
X126996478Y-86232556D01*
X127014551Y-86246804D01*
X127018962Y-86250724D01*
X127019021Y-86250654D01*
X127022921Y-86253959D01*
X127026538Y-86257576D01*
X127030691Y-86260544D01*
X127030702Y-86260553D01*
X127042100Y-86268697D01*
X127046775Y-86272207D01*
X127075637Y-86294960D01*
X127086600Y-86303603D01*
X127095148Y-86306605D01*
X127102519Y-86311872D01*
X127112336Y-86314808D01*
X127112338Y-86314809D01*
X127143296Y-86324067D01*
X127144744Y-86324500D01*
X127151127Y-86326409D01*
X127156685Y-86328215D01*
X127197186Y-86342438D01*
X127197188Y-86342439D01*
X127204548Y-86345023D01*
X127210055Y-86345500D01*
X127212738Y-86345500D01*
X127215337Y-86345613D01*
X127215415Y-86345636D01*
X127215408Y-86345804D01*
X127216129Y-86345849D01*
X127222287Y-86347691D01*
X127232525Y-86347289D01*
X127232527Y-86347289D01*
X127275606Y-86345596D01*
X127280474Y-86345500D01*
X128251754Y-86345500D01*
X128318793Y-86365185D01*
X128364548Y-86417989D01*
X128375429Y-86478474D01*
X128375149Y-86482334D01*
X128374500Y-86486782D01*
X128374500Y-86753218D01*
X128384642Y-86822112D01*
X128412437Y-86878724D01*
X128418128Y-86890315D01*
X128430004Y-86959168D01*
X128418223Y-86999419D01*
X128388984Y-87059236D01*
X128384464Y-87068482D01*
X128383075Y-87078006D01*
X128383074Y-87078008D01*
X128375880Y-87127325D01*
X128374500Y-87136782D01*
X128374500Y-87403218D01*
X128381415Y-87450188D01*
X128382458Y-87457274D01*
X128372747Y-87526465D01*
X128327170Y-87579423D01*
X128260198Y-87599333D01*
X128193092Y-87579875D01*
X128177292Y-87567918D01*
X128167559Y-87559246D01*
X128167558Y-87559245D01*
X128161976Y-87554272D01*
X128022831Y-87480598D01*
X127987681Y-87471769D01*
X127927458Y-87436345D01*
X127895946Y-87373985D01*
X127895128Y-87334034D01*
X127904562Y-87267746D01*
X127904563Y-87267738D01*
X127905134Y-87263723D01*
X127905278Y-87250000D01*
X127897413Y-87185003D01*
X127887262Y-87101119D01*
X127887261Y-87101115D01*
X127886363Y-87093694D01*
X127873568Y-87059834D01*
X127833354Y-86953408D01*
X127833352Y-86953405D01*
X127830710Y-86946412D01*
X127792338Y-86890581D01*
X127745768Y-86822821D01*
X127745765Y-86822818D01*
X127741531Y-86816657D01*
X127665282Y-86748721D01*
X127629559Y-86716893D01*
X127629558Y-86716892D01*
X127623976Y-86711919D01*
X127484831Y-86638245D01*
X127332128Y-86599889D01*
X127250329Y-86599461D01*
X127182158Y-86599104D01*
X127182157Y-86599104D01*
X127174684Y-86599065D01*
X127167421Y-86600809D01*
X127167418Y-86600809D01*
X127098136Y-86617443D01*
X127021588Y-86635820D01*
X126881679Y-86708032D01*
X126876048Y-86712945D01*
X126876047Y-86712945D01*
X126824779Y-86757669D01*
X126763034Y-86811533D01*
X126672501Y-86940348D01*
X126669785Y-86947313D01*
X126669785Y-86947314D01*
X126667409Y-86953408D01*
X126615309Y-87087039D01*
X126594758Y-87243138D01*
X126595578Y-87250566D01*
X126595578Y-87250568D01*
X126600776Y-87297648D01*
X126612035Y-87399633D01*
X126614604Y-87406653D01*
X126615530Y-87409184D01*
X126615839Y-87411921D01*
X126616311Y-87413932D01*
X126616073Y-87413988D01*
X126620410Y-87452362D01*
X126622310Y-87452287D01*
X126624404Y-87505581D01*
X126624500Y-87510449D01*
X126624500Y-88416716D01*
X126621953Y-88440651D01*
X126621887Y-88442052D01*
X126619731Y-88452066D01*
X126620935Y-88462239D01*
X126623641Y-88485102D01*
X126623988Y-88490984D01*
X126624078Y-88490977D01*
X126624500Y-88496082D01*
X126624500Y-88501193D01*
X126625339Y-88506233D01*
X126627639Y-88520053D01*
X126628461Y-88525832D01*
X126632043Y-88556094D01*
X126634424Y-88576210D01*
X126638346Y-88584377D01*
X126639833Y-88593313D01*
X126660259Y-88631168D01*
X126663922Y-88637957D01*
X126666574Y-88643160D01*
X126688537Y-88688900D01*
X126692094Y-88693131D01*
X126693980Y-88695017D01*
X126695751Y-88696947D01*
X126695779Y-88697000D01*
X126695652Y-88697117D01*
X126696143Y-88697674D01*
X126699194Y-88703329D01*
X126706723Y-88710289D01*
X126706724Y-88710290D01*
X126738381Y-88739553D01*
X126741891Y-88742928D01*
X127446802Y-89447839D01*
X127461929Y-89466568D01*
X127462870Y-89467602D01*
X127468428Y-89476210D01*
X127476473Y-89482552D01*
X127494555Y-89496807D01*
X127498958Y-89500720D01*
X127499017Y-89500650D01*
X127502920Y-89503957D01*
X127506538Y-89507575D01*
X127510700Y-89510549D01*
X127522077Y-89518679D01*
X127526728Y-89522170D01*
X127566600Y-89553603D01*
X127575149Y-89556605D01*
X127582519Y-89561872D01*
X127592341Y-89564809D01*
X127592340Y-89564809D01*
X127631114Y-89576405D01*
X127636672Y-89578211D01*
X127677183Y-89592438D01*
X127677193Y-89592440D01*
X127684548Y-89595023D01*
X127690055Y-89595500D01*
X127692738Y-89595500D01*
X127695340Y-89595613D01*
X127695415Y-89595635D01*
X127695408Y-89595804D01*
X127696132Y-89595850D01*
X127702286Y-89597690D01*
X127712525Y-89597288D01*
X127712528Y-89597288D01*
X127755580Y-89595596D01*
X127760448Y-89595500D01*
X128251754Y-89595500D01*
X128318793Y-89615185D01*
X128364548Y-89667989D01*
X128375429Y-89728474D01*
X128375149Y-89732334D01*
X128374500Y-89736782D01*
X128374500Y-90003218D01*
X128384642Y-90072112D01*
X128436068Y-90176855D01*
X128518650Y-90259293D01*
X128527855Y-90263792D01*
X128527857Y-90263794D01*
X128569471Y-90284135D01*
X128623482Y-90310536D01*
X128633006Y-90311925D01*
X128633008Y-90311926D01*
X128687331Y-90319851D01*
X128687336Y-90319851D01*
X128691782Y-90320500D01*
X128900541Y-90320500D01*
X128967580Y-90340185D01*
X129006695Y-90383417D01*
X129007353Y-90382975D01*
X129095168Y-90513657D01*
X129148296Y-90562000D01*
X129206088Y-90614587D01*
X129206092Y-90614590D01*
X129211620Y-90619620D01*
X129218190Y-90623187D01*
X129218191Y-90623188D01*
X129328730Y-90683206D01*
X129349986Y-90694747D01*
X129443955Y-90719399D01*
X129495051Y-90732804D01*
X129495053Y-90732804D01*
X129502279Y-90734700D01*
X129649039Y-90737005D01*
X129715760Y-90757740D01*
X129734772Y-90773309D01*
X130076667Y-91115205D01*
X130413182Y-91451720D01*
X130446667Y-91513043D01*
X130449501Y-91539401D01*
X130449501Y-91634876D01*
X130456149Y-91696080D01*
X130506474Y-91830324D01*
X130592454Y-91945046D01*
X130599519Y-91950341D01*
X130700109Y-92025730D01*
X130700111Y-92025731D01*
X130707176Y-92031026D01*
X130841420Y-92081351D01*
X130902623Y-92088000D01*
X130940825Y-92088000D01*
X131813244Y-92087999D01*
X131880283Y-92107683D01*
X131926038Y-92160487D01*
X131935982Y-92229646D01*
X131930663Y-92251857D01*
X131871713Y-92425521D01*
X131869610Y-92433368D01*
X131814934Y-92708243D01*
X131813876Y-92716279D01*
X131795546Y-92995942D01*
X131795546Y-93004058D01*
X131813876Y-93283721D01*
X131814934Y-93291757D01*
X131869610Y-93566632D01*
X131871713Y-93574479D01*
X131961798Y-93839863D01*
X131964900Y-93847351D01*
X132088861Y-94098720D01*
X132092911Y-94105734D01*
X132248618Y-94338766D01*
X132253560Y-94345206D01*
X132330158Y-94432549D01*
X132343187Y-94440813D01*
X132352795Y-94435073D01*
X135433347Y-91354521D01*
X135440741Y-91340980D01*
X135434385Y-91331768D01*
X135345206Y-91253560D01*
X135338766Y-91248618D01*
X135105734Y-91092911D01*
X135098720Y-91088861D01*
X134847351Y-90964900D01*
X134839863Y-90961798D01*
X134574479Y-90871713D01*
X134566632Y-90869610D01*
X134291757Y-90814934D01*
X134283721Y-90813876D01*
X134004058Y-90795546D01*
X133995942Y-90795546D01*
X133716279Y-90813876D01*
X133708243Y-90814934D01*
X133433368Y-90869610D01*
X133425521Y-90871713D01*
X133160137Y-90961798D01*
X133152649Y-90964900D01*
X132901280Y-91088861D01*
X132894266Y-91092911D01*
X132661234Y-91248618D01*
X132654794Y-91253560D01*
X132556258Y-91339973D01*
X132492876Y-91369376D01*
X132423659Y-91359844D01*
X132370584Y-91314404D01*
X132350499Y-91246745D01*
X132350499Y-91015124D01*
X132343851Y-90953920D01*
X132293526Y-90819676D01*
X132287605Y-90811775D01*
X132212841Y-90712019D01*
X132207546Y-90704954D01*
X132193927Y-90694747D01*
X132099891Y-90624270D01*
X132099889Y-90624269D01*
X132092824Y-90618974D01*
X132081122Y-90614587D01*
X132016535Y-90590375D01*
X131958580Y-90568649D01*
X131897377Y-90562000D01*
X131400075Y-90562000D01*
X130902624Y-90562001D01*
X130841420Y-90568649D01*
X130834150Y-90571374D01*
X130834139Y-90571377D01*
X130734898Y-90608581D01*
X130665215Y-90613682D01*
X130603690Y-90580153D01*
X130322539Y-90299002D01*
X130289054Y-90237679D01*
X130294038Y-90167987D01*
X130298817Y-90156866D01*
X130336587Y-90079597D01*
X130383712Y-90028012D01*
X130451246Y-90010095D01*
X130517745Y-90031533D01*
X130547215Y-90059686D01*
X130587155Y-90112977D01*
X130587159Y-90112981D01*
X130592454Y-90120046D01*
X130599519Y-90125341D01*
X130700109Y-90200730D01*
X130700111Y-90200731D01*
X130707176Y-90206026D01*
X130841420Y-90256351D01*
X130902623Y-90263000D01*
X131399926Y-90263000D01*
X131897376Y-90262999D01*
X131958580Y-90256351D01*
X132092824Y-90206026D01*
X132099894Y-90200727D01*
X132102446Y-90199330D01*
X132170702Y-90184401D01*
X132236194Y-90208744D01*
X132245449Y-90216381D01*
X132314378Y-90279102D01*
X132314382Y-90279105D01*
X132319910Y-90284135D01*
X132326480Y-90287702D01*
X132326481Y-90287703D01*
X132451708Y-90355696D01*
X132458276Y-90359262D01*
X132550350Y-90383417D01*
X132603341Y-90397319D01*
X132603343Y-90397319D01*
X132610569Y-90399215D01*
X132687627Y-90400425D01*
X132760525Y-90401571D01*
X132760528Y-90401571D01*
X132767995Y-90401688D01*
X132775276Y-90400020D01*
X132775280Y-90400020D01*
X132914181Y-90368207D01*
X132921468Y-90366538D01*
X133062125Y-90295795D01*
X133067806Y-90290943D01*
X133067809Y-90290941D01*
X133176166Y-90198395D01*
X133176167Y-90198394D01*
X133181848Y-90193542D01*
X133188417Y-90184401D01*
X133239740Y-90112977D01*
X133273724Y-90065683D01*
X133332450Y-89919598D01*
X133336584Y-89890551D01*
X133354062Y-89767744D01*
X133354062Y-89767740D01*
X133354634Y-89763723D01*
X133354778Y-89750000D01*
X133353722Y-89741277D01*
X133336762Y-89601119D01*
X133336761Y-89601115D01*
X133335863Y-89593694D01*
X133308161Y-89520382D01*
X133282854Y-89453408D01*
X133282852Y-89453405D01*
X133280210Y-89446412D01*
X133254876Y-89409551D01*
X133195268Y-89322821D01*
X133195265Y-89322818D01*
X133191031Y-89316657D01*
X133116511Y-89250262D01*
X133079552Y-89190968D01*
X133075000Y-89157679D01*
X133075000Y-88978886D01*
X133094685Y-88911847D01*
X133147489Y-88866092D01*
X133216647Y-88856148D01*
X133273971Y-88880117D01*
X133370729Y-88953561D01*
X133385326Y-88961786D01*
X133510167Y-89011214D01*
X133525479Y-89015103D01*
X133603567Y-89024552D01*
X133610996Y-89025000D01*
X133732170Y-89025000D01*
X133747169Y-89020596D01*
X133748356Y-89019226D01*
X133750000Y-89011668D01*
X133750000Y-89007170D01*
X134050000Y-89007170D01*
X134054404Y-89022169D01*
X134055774Y-89023356D01*
X134063332Y-89025000D01*
X134189004Y-89025000D01*
X134196433Y-89024552D01*
X134274521Y-89015103D01*
X134289833Y-89011214D01*
X134414674Y-88961786D01*
X134429270Y-88953561D01*
X134535833Y-88872675D01*
X134547675Y-88860833D01*
X134628561Y-88754270D01*
X134636786Y-88739674D01*
X134686214Y-88614833D01*
X134690103Y-88599521D01*
X134699552Y-88521433D01*
X134700000Y-88514004D01*
X134700000Y-88167830D01*
X134695596Y-88152831D01*
X134694226Y-88151644D01*
X134686668Y-88150000D01*
X134067830Y-88150000D01*
X134052831Y-88154404D01*
X134051644Y-88155774D01*
X134050000Y-88163332D01*
X134050000Y-89007170D01*
X133750000Y-89007170D01*
X133750000Y-88167830D01*
X133745596Y-88152831D01*
X133744226Y-88151644D01*
X133736668Y-88150000D01*
X133117830Y-88150000D01*
X133102831Y-88154404D01*
X133101644Y-88155774D01*
X133100000Y-88163332D01*
X133100000Y-88269601D01*
X133080315Y-88336640D01*
X133027511Y-88382395D01*
X132958353Y-88392339D01*
X132894797Y-88363314D01*
X132888319Y-88357282D01*
X132786819Y-88255782D01*
X132753334Y-88194459D01*
X132750500Y-88168101D01*
X132750499Y-87480985D01*
X132750499Y-87477624D01*
X132743980Y-87417610D01*
X132756310Y-87348838D01*
X132803864Y-87297648D01*
X132811532Y-87293446D01*
X132873424Y-87262318D01*
X132879107Y-87257465D01*
X132879112Y-87257461D01*
X132930497Y-87213574D01*
X132994258Y-87185003D01*
X133063344Y-87195440D01*
X133115819Y-87241571D01*
X133135025Y-87308749D01*
X133126320Y-87353512D01*
X133113785Y-87385170D01*
X133109897Y-87400479D01*
X133100448Y-87478567D01*
X133100000Y-87485996D01*
X133100000Y-87832170D01*
X133104404Y-87847169D01*
X133105774Y-87848356D01*
X133113332Y-87850000D01*
X133732170Y-87850000D01*
X133747169Y-87845596D01*
X133748356Y-87844226D01*
X133750000Y-87836668D01*
X133750000Y-87832170D01*
X134050000Y-87832170D01*
X134054404Y-87847169D01*
X134055774Y-87848356D01*
X134063332Y-87850000D01*
X134682170Y-87850000D01*
X134697169Y-87845596D01*
X134698356Y-87844226D01*
X134700000Y-87836668D01*
X134700000Y-87485996D01*
X134699552Y-87478567D01*
X134690103Y-87400479D01*
X134686214Y-87385167D01*
X134636786Y-87260326D01*
X134628561Y-87245730D01*
X134547675Y-87139167D01*
X134535833Y-87127325D01*
X134429270Y-87046439D01*
X134414674Y-87038214D01*
X134289833Y-86988786D01*
X134274521Y-86984897D01*
X134196433Y-86975448D01*
X134189004Y-86975000D01*
X134067830Y-86975000D01*
X134052831Y-86979404D01*
X134051644Y-86980774D01*
X134050000Y-86988332D01*
X134050000Y-87832170D01*
X133750000Y-87832170D01*
X133750000Y-86992830D01*
X133745596Y-86977831D01*
X133744226Y-86976644D01*
X133736668Y-86975000D01*
X133610996Y-86975000D01*
X133603567Y-86975448D01*
X133525479Y-86984897D01*
X133510167Y-86988786D01*
X133385326Y-87038214D01*
X133370731Y-87046438D01*
X133308691Y-87093529D01*
X133243391Y-87118381D01*
X133175021Y-87103985D01*
X133125287Y-87054910D01*
X133109981Y-86986738D01*
X133118670Y-86948508D01*
X133140961Y-86893060D01*
X133140964Y-86893049D01*
X133143749Y-86886121D01*
X133151628Y-86830759D01*
X133165361Y-86734267D01*
X133165361Y-86734263D01*
X133165933Y-86730246D01*
X133166077Y-86716523D01*
X133165097Y-86708421D01*
X133148061Y-86567642D01*
X133148060Y-86567638D01*
X133147162Y-86560217D01*
X133131694Y-86519283D01*
X133094153Y-86419931D01*
X133094151Y-86419928D01*
X133091509Y-86412935D01*
X133046668Y-86347691D01*
X133006567Y-86289344D01*
X133006564Y-86289341D01*
X133002330Y-86283180D01*
X132942456Y-86229834D01*
X132890358Y-86183416D01*
X132890357Y-86183415D01*
X132884775Y-86178442D01*
X132745630Y-86104768D01*
X132592927Y-86066412D01*
X132511128Y-86065984D01*
X132442957Y-86065627D01*
X132442956Y-86065627D01*
X132435483Y-86065588D01*
X132428217Y-86067332D01*
X132428212Y-86067333D01*
X132423155Y-86068547D01*
X132353373Y-86065056D01*
X132296556Y-86024391D01*
X132293626Y-86019942D01*
X132293526Y-86019676D01*
X132240104Y-85948395D01*
X132212841Y-85912019D01*
X132207546Y-85904954D01*
X132200481Y-85899659D01*
X132099891Y-85824270D01*
X132099889Y-85824269D01*
X132092824Y-85818974D01*
X131958580Y-85768649D01*
X131897377Y-85762000D01*
X131884958Y-85762000D01*
X131168397Y-85762001D01*
X131101359Y-85742317D01*
X131055604Y-85689513D01*
X131045660Y-85620354D01*
X131074685Y-85556798D01*
X131080717Y-85550320D01*
X131131718Y-85499319D01*
X131193041Y-85465834D01*
X131219399Y-85463000D01*
X131852581Y-85462999D01*
X131897376Y-85462999D01*
X131958580Y-85456351D01*
X132092824Y-85406026D01*
X132099889Y-85400731D01*
X132099891Y-85400730D01*
X132200481Y-85325341D01*
X132207546Y-85320046D01*
X132254193Y-85257806D01*
X132288230Y-85212391D01*
X132288231Y-85212389D01*
X132293526Y-85205324D01*
X132343851Y-85071080D01*
X132350500Y-85009877D01*
X132350499Y-84390124D01*
X132343851Y-84328920D01*
X132293526Y-84194676D01*
X132207546Y-84079954D01*
X132179897Y-84059232D01*
X132099891Y-83999270D01*
X132099889Y-83999269D01*
X132092824Y-83993974D01*
X131958580Y-83943649D01*
X131897377Y-83937000D01*
X131400075Y-83937000D01*
X130902624Y-83937001D01*
X130841420Y-83943649D01*
X130707176Y-83993974D01*
X130700111Y-83999269D01*
X130700109Y-83999270D01*
X130620103Y-84059232D01*
X130592454Y-84079954D01*
X130506474Y-84194676D01*
X130456149Y-84328920D01*
X130449500Y-84390123D01*
X130449501Y-85009876D01*
X130453770Y-85049172D01*
X130453823Y-85049662D01*
X130441493Y-85118435D01*
X130418229Y-85150734D01*
X130085782Y-85483181D01*
X130024459Y-85516666D01*
X129998101Y-85519500D01*
X128691782Y-85519500D01*
X128622888Y-85529642D01*
X128518145Y-85581068D01*
X128516262Y-85577232D01*
X128462462Y-85594500D01*
X127476899Y-85594500D01*
X127409860Y-85574815D01*
X127389218Y-85558181D01*
X126397493Y-84566456D01*
X126364008Y-84505133D01*
X126367513Y-84439635D01*
X126407438Y-84319614D01*
X126407439Y-84319611D01*
X126409351Y-84313863D01*
X126414823Y-84270553D01*
X126434736Y-84112919D01*
X126434736Y-84112915D01*
X126435171Y-84109474D01*
X126435583Y-84080000D01*
X126434138Y-84065262D01*
X126864520Y-84065262D01*
X126881759Y-84270553D01*
X126938544Y-84468586D01*
X126941316Y-84473981D01*
X126941317Y-84473982D01*
X126959491Y-84509344D01*
X127032712Y-84651818D01*
X127036480Y-84656572D01*
X127130448Y-84775130D01*
X127160677Y-84813270D01*
X127165296Y-84817201D01*
X127312950Y-84942865D01*
X127312955Y-84942869D01*
X127317564Y-84946791D01*
X127497398Y-85047297D01*
X127693329Y-85110959D01*
X127699347Y-85111677D01*
X127699349Y-85111677D01*
X127833192Y-85127636D01*
X127897894Y-85135351D01*
X127903938Y-85134886D01*
X127903939Y-85134886D01*
X127987451Y-85128460D01*
X128103300Y-85119546D01*
X128188596Y-85095731D01*
X128295885Y-85065776D01*
X128295889Y-85065774D01*
X128301725Y-85064145D01*
X128485610Y-84971258D01*
X128647951Y-84844424D01*
X128651907Y-84839840D01*
X128651911Y-84839837D01*
X128778602Y-84693062D01*
X128782564Y-84688472D01*
X128800686Y-84656573D01*
X128881327Y-84514618D01*
X128884323Y-84509344D01*
X128949351Y-84313863D01*
X128954823Y-84270553D01*
X128974736Y-84112919D01*
X128974736Y-84112915D01*
X128975171Y-84109474D01*
X128975583Y-84080000D01*
X128973547Y-84059232D01*
X128956072Y-83881006D01*
X128956072Y-83881004D01*
X128955480Y-83874970D01*
X128895935Y-83677749D01*
X128854022Y-83598922D01*
X128802065Y-83501203D01*
X128802064Y-83501201D01*
X128799218Y-83495849D01*
X128669011Y-83336200D01*
X128576652Y-83259794D01*
X128514946Y-83208746D01*
X128514945Y-83208745D01*
X128510275Y-83204882D01*
X128329055Y-83106897D01*
X128319991Y-83104091D01*
X128138046Y-83047770D01*
X128138047Y-83047770D01*
X128132254Y-83045977D01*
X127927369Y-83024443D01*
X127921336Y-83024992D01*
X127921332Y-83024992D01*
X127795721Y-83036424D01*
X127722203Y-83043114D01*
X127716390Y-83044825D01*
X127716389Y-83044825D01*
X127712475Y-83045977D01*
X127524572Y-83101280D01*
X127440819Y-83145065D01*
X127347374Y-83193917D01*
X127347370Y-83193920D01*
X127342002Y-83196726D01*
X127337279Y-83200523D01*
X127337278Y-83200524D01*
X127285342Y-83242282D01*
X127181447Y-83325815D01*
X127049024Y-83483630D01*
X126949776Y-83664162D01*
X126887484Y-83860532D01*
X126864520Y-84065262D01*
X126434138Y-84065262D01*
X126433547Y-84059232D01*
X126416072Y-83881006D01*
X126416072Y-83881004D01*
X126415480Y-83874970D01*
X126355935Y-83677749D01*
X126314022Y-83598922D01*
X126262065Y-83501203D01*
X126262064Y-83501201D01*
X126259218Y-83495849D01*
X126129011Y-83336200D01*
X126036652Y-83259794D01*
X125974946Y-83208746D01*
X125974945Y-83208745D01*
X125970275Y-83204882D01*
X125789055Y-83106897D01*
X125779991Y-83104091D01*
X125598046Y-83047770D01*
X125598047Y-83047770D01*
X125592254Y-83045977D01*
X125387369Y-83024443D01*
X125381336Y-83024992D01*
X125381332Y-83024992D01*
X125255721Y-83036424D01*
X125182203Y-83043114D01*
X125176390Y-83044825D01*
X125176389Y-83044825D01*
X125172475Y-83045977D01*
X124984572Y-83101280D01*
X124900819Y-83145065D01*
X124807374Y-83193917D01*
X124807370Y-83193920D01*
X124802002Y-83196726D01*
X124797279Y-83200523D01*
X124797278Y-83200524D01*
X124745342Y-83242282D01*
X124641447Y-83325815D01*
X124509024Y-83483630D01*
X124409776Y-83664162D01*
X124347484Y-83860532D01*
X124324520Y-84065262D01*
X124341759Y-84270553D01*
X124398544Y-84468586D01*
X124401316Y-84473981D01*
X124401317Y-84473982D01*
X124419491Y-84509344D01*
X124492712Y-84651818D01*
X124539117Y-84710367D01*
X124565331Y-84775130D01*
X124552369Y-84843787D01*
X124498811Y-84897575D01*
X124388324Y-84954602D01*
X124388322Y-84954603D01*
X124381679Y-84958032D01*
X124376048Y-84962945D01*
X124376047Y-84962945D01*
X124277204Y-85049172D01*
X124263034Y-85061533D01*
X124258735Y-85067650D01*
X124258733Y-85067652D01*
X124256659Y-85070603D01*
X124254598Y-85072245D01*
X124253733Y-85073205D01*
X124253573Y-85073061D01*
X124202005Y-85114132D01*
X124145845Y-85119054D01*
X124145688Y-85122371D01*
X124135452Y-85121888D01*
X124125433Y-85119731D01*
X124115260Y-85120935D01*
X124115258Y-85120935D01*
X124092397Y-85123641D01*
X124086516Y-85123988D01*
X124086523Y-85124078D01*
X124081417Y-85124500D01*
X124076307Y-85124500D01*
X124057453Y-85127638D01*
X124051690Y-85128459D01*
X124040559Y-85129776D01*
X124011467Y-85133219D01*
X124011464Y-85133220D01*
X124001290Y-85134424D01*
X123993123Y-85138346D01*
X123984187Y-85139833D01*
X123939543Y-85163922D01*
X123934340Y-85166574D01*
X123888600Y-85188537D01*
X123884369Y-85192094D01*
X123882483Y-85193980D01*
X123880553Y-85195751D01*
X123880500Y-85195779D01*
X123880383Y-85195652D01*
X123879826Y-85196143D01*
X123874171Y-85199194D01*
X123867211Y-85206723D01*
X123867210Y-85206724D01*
X123837947Y-85238381D01*
X123834572Y-85241891D01*
X123593282Y-85483181D01*
X123531959Y-85516666D01*
X123505601Y-85519500D01*
X122966782Y-85519500D01*
X122897888Y-85529642D01*
X122793145Y-85581068D01*
X122791262Y-85577232D01*
X122737462Y-85594500D01*
X122537203Y-85594500D01*
X122470164Y-85574815D01*
X122424409Y-85522011D01*
X122421861Y-85515874D01*
X122421625Y-85515444D01*
X122418526Y-85507176D01*
X122332546Y-85392454D01*
X122325476Y-85387155D01*
X122224891Y-85311770D01*
X122224889Y-85311769D01*
X122217824Y-85306474D01*
X122209550Y-85303372D01*
X122155905Y-85283262D01*
X122083580Y-85256149D01*
X122022377Y-85249500D01*
X121712547Y-85249500D01*
X121402624Y-85249501D01*
X121341420Y-85256149D01*
X121269095Y-85283262D01*
X121215451Y-85303372D01*
X121207176Y-85306474D01*
X121200111Y-85311769D01*
X121200109Y-85311770D01*
X121099524Y-85387155D01*
X121092454Y-85392454D01*
X121087159Y-85399519D01*
X121012363Y-85499319D01*
X121006474Y-85507176D01*
X121003374Y-85515444D01*
X121003374Y-85515445D01*
X121001079Y-85521568D01*
X120956149Y-85641420D01*
X120949500Y-85702623D01*
X120949501Y-86197843D01*
X120949501Y-86431602D01*
X120929817Y-86498641D01*
X120877013Y-86544396D01*
X120807854Y-86554340D01*
X120744298Y-86525315D01*
X120737820Y-86519283D01*
X120686819Y-86468282D01*
X120653334Y-86406959D01*
X120650500Y-86380601D01*
X120650499Y-85705985D01*
X120650499Y-85702624D01*
X120643851Y-85641420D01*
X120598921Y-85521568D01*
X120596626Y-85515445D01*
X120596626Y-85515444D01*
X120593526Y-85507176D01*
X120587638Y-85499319D01*
X120512841Y-85399519D01*
X120507546Y-85392454D01*
X120500481Y-85387159D01*
X120500477Y-85387155D01*
X120436517Y-85339219D01*
X120394677Y-85283262D01*
X120389732Y-85213568D01*
X120423251Y-85152263D01*
X120483661Y-85120838D01*
X120483300Y-85119546D01*
X120675885Y-85065776D01*
X120675889Y-85065774D01*
X120681725Y-85064145D01*
X120865610Y-84971258D01*
X121027951Y-84844424D01*
X121031907Y-84839840D01*
X121031911Y-84839837D01*
X121158602Y-84693062D01*
X121162564Y-84688472D01*
X121180686Y-84656573D01*
X121261327Y-84514618D01*
X121264323Y-84509344D01*
X121329351Y-84313863D01*
X121334823Y-84270553D01*
X121354736Y-84112919D01*
X121354736Y-84112915D01*
X121355171Y-84109474D01*
X121355583Y-84080000D01*
X121354138Y-84065262D01*
X121784520Y-84065262D01*
X121801759Y-84270553D01*
X121858544Y-84468586D01*
X121861316Y-84473981D01*
X121861317Y-84473982D01*
X121879491Y-84509344D01*
X121952712Y-84651818D01*
X121956480Y-84656572D01*
X122050448Y-84775130D01*
X122080677Y-84813270D01*
X122085296Y-84817201D01*
X122232950Y-84942865D01*
X122232955Y-84942869D01*
X122237564Y-84946791D01*
X122417398Y-85047297D01*
X122613329Y-85110959D01*
X122619347Y-85111677D01*
X122619349Y-85111677D01*
X122753192Y-85127636D01*
X122817894Y-85135351D01*
X122823938Y-85134886D01*
X122823939Y-85134886D01*
X122907451Y-85128460D01*
X123023300Y-85119546D01*
X123108596Y-85095731D01*
X123215885Y-85065776D01*
X123215889Y-85065774D01*
X123221725Y-85064145D01*
X123405610Y-84971258D01*
X123567951Y-84844424D01*
X123571907Y-84839840D01*
X123571911Y-84839837D01*
X123698602Y-84693062D01*
X123702564Y-84688472D01*
X123720686Y-84656573D01*
X123801327Y-84514618D01*
X123804323Y-84509344D01*
X123869351Y-84313863D01*
X123874823Y-84270553D01*
X123894736Y-84112919D01*
X123894736Y-84112915D01*
X123895171Y-84109474D01*
X123895583Y-84080000D01*
X123893547Y-84059232D01*
X123876072Y-83881006D01*
X123876072Y-83881004D01*
X123875480Y-83874970D01*
X123815935Y-83677749D01*
X123774022Y-83598922D01*
X123722065Y-83501203D01*
X123722064Y-83501201D01*
X123719218Y-83495849D01*
X123589011Y-83336200D01*
X123496652Y-83259794D01*
X123434946Y-83208746D01*
X123434945Y-83208745D01*
X123430275Y-83204882D01*
X123249055Y-83106897D01*
X123239991Y-83104091D01*
X123058046Y-83047770D01*
X123058047Y-83047770D01*
X123052254Y-83045977D01*
X122847369Y-83024443D01*
X122841336Y-83024992D01*
X122841332Y-83024992D01*
X122715721Y-83036424D01*
X122642203Y-83043114D01*
X122636390Y-83044825D01*
X122636389Y-83044825D01*
X122632475Y-83045977D01*
X122444572Y-83101280D01*
X122360819Y-83145065D01*
X122267374Y-83193917D01*
X122267370Y-83193920D01*
X122262002Y-83196726D01*
X122257279Y-83200523D01*
X122257278Y-83200524D01*
X122205342Y-83242282D01*
X122101447Y-83325815D01*
X121969024Y-83483630D01*
X121869776Y-83664162D01*
X121807484Y-83860532D01*
X121784520Y-84065262D01*
X121354138Y-84065262D01*
X121353547Y-84059232D01*
X121336072Y-83881006D01*
X121336072Y-83881004D01*
X121335480Y-83874970D01*
X121275935Y-83677749D01*
X121234022Y-83598922D01*
X121182065Y-83501203D01*
X121182064Y-83501201D01*
X121179218Y-83495849D01*
X121049011Y-83336200D01*
X120956652Y-83259794D01*
X120894946Y-83208746D01*
X120894945Y-83208745D01*
X120890275Y-83204882D01*
X120709055Y-83106897D01*
X120699991Y-83104091D01*
X120518046Y-83047770D01*
X120518047Y-83047770D01*
X120512254Y-83045977D01*
X120307369Y-83024443D01*
X120301336Y-83024992D01*
X120301332Y-83024992D01*
X120175721Y-83036424D01*
X120102203Y-83043114D01*
X120096390Y-83044825D01*
X120096389Y-83044825D01*
X120092475Y-83045977D01*
X119904572Y-83101280D01*
X119820819Y-83145065D01*
X119727374Y-83193917D01*
X119727370Y-83193920D01*
X119722002Y-83196726D01*
X119717279Y-83200523D01*
X119717278Y-83200524D01*
X119665342Y-83242282D01*
X119561447Y-83325815D01*
X119429024Y-83483630D01*
X119329776Y-83664162D01*
X119267484Y-83860532D01*
X119244520Y-84065262D01*
X119261759Y-84270553D01*
X119318544Y-84468586D01*
X119321316Y-84473981D01*
X119321317Y-84473982D01*
X119339491Y-84509344D01*
X119412712Y-84651818D01*
X119416476Y-84656567D01*
X119416480Y-84656573D01*
X119485178Y-84743248D01*
X119511393Y-84808014D01*
X119512000Y-84820270D01*
X119512000Y-85171863D01*
X119492315Y-85238902D01*
X119439511Y-85284657D01*
X119431528Y-85287972D01*
X119390449Y-85303372D01*
X119390445Y-85303374D01*
X119382176Y-85306474D01*
X119375111Y-85311769D01*
X119375109Y-85311770D01*
X119274524Y-85387155D01*
X119267454Y-85392454D01*
X119262159Y-85399519D01*
X119187363Y-85499319D01*
X119181474Y-85507176D01*
X119178374Y-85515444D01*
X119178374Y-85515445D01*
X119176079Y-85521568D01*
X119131149Y-85641420D01*
X119124500Y-85702623D01*
X119124501Y-86197843D01*
X119124501Y-86588000D01*
X119104817Y-86655039D01*
X119052013Y-86700794D01*
X119000501Y-86712000D01*
X118778137Y-86712000D01*
X118711098Y-86692315D01*
X118665343Y-86639511D01*
X118662028Y-86631528D01*
X118646628Y-86590449D01*
X118646626Y-86590445D01*
X118643526Y-86582176D01*
X118632634Y-86567642D01*
X118562841Y-86474519D01*
X118557546Y-86467454D01*
X118508847Y-86430956D01*
X118449891Y-86386770D01*
X118449889Y-86386769D01*
X118442824Y-86381474D01*
X118308580Y-86331149D01*
X118247377Y-86324500D01*
X117750075Y-86324500D01*
X117252624Y-86324501D01*
X117191420Y-86331149D01*
X117057176Y-86381474D01*
X117050111Y-86386769D01*
X117050109Y-86386770D01*
X116991153Y-86430956D01*
X116942454Y-86467454D01*
X116937159Y-86474519D01*
X116867367Y-86567642D01*
X116856474Y-86582176D01*
X116806149Y-86716420D01*
X116799500Y-86777623D01*
X116799501Y-87397376D01*
X116806149Y-87458580D01*
X116833069Y-87530391D01*
X116852329Y-87581766D01*
X116856474Y-87592824D01*
X116861769Y-87599889D01*
X116861770Y-87599891D01*
X116887069Y-87633647D01*
X116942454Y-87707546D01*
X116949519Y-87712841D01*
X117050109Y-87788230D01*
X117050111Y-87788231D01*
X117057176Y-87793526D01*
X117065444Y-87796626D01*
X117065445Y-87796626D01*
X117096768Y-87808368D01*
X117191420Y-87843851D01*
X117252623Y-87850500D01*
X117749926Y-87850500D01*
X118247376Y-87850499D01*
X118308580Y-87843851D01*
X118409144Y-87806152D01*
X118434555Y-87796626D01*
X118434556Y-87796626D01*
X118442824Y-87793526D01*
X118449889Y-87788231D01*
X118449891Y-87788230D01*
X118550481Y-87712841D01*
X118557546Y-87707546D01*
X118612931Y-87633647D01*
X118638230Y-87599891D01*
X118638231Y-87599889D01*
X118643526Y-87592824D01*
X118646626Y-87584555D01*
X118646628Y-87584551D01*
X118662028Y-87543472D01*
X118703993Y-87487609D01*
X118769498Y-87463301D01*
X118778137Y-87463000D01*
X119609216Y-87463000D01*
X119633151Y-87465547D01*
X119634552Y-87465613D01*
X119644566Y-87467769D01*
X119654739Y-87466565D01*
X119677602Y-87463859D01*
X119683484Y-87463512D01*
X119683477Y-87463422D01*
X119688582Y-87463000D01*
X119693693Y-87463000D01*
X119712553Y-87459861D01*
X119718332Y-87459039D01*
X119758532Y-87454281D01*
X119758534Y-87454280D01*
X119768710Y-87453076D01*
X119776877Y-87449154D01*
X119785813Y-87447667D01*
X119830458Y-87423577D01*
X119835663Y-87420925D01*
X119874367Y-87402340D01*
X119874366Y-87402340D01*
X119881400Y-87398963D01*
X119885631Y-87395406D01*
X119887517Y-87393520D01*
X119889447Y-87391749D01*
X119889500Y-87391721D01*
X119889617Y-87391848D01*
X119890174Y-87391357D01*
X119895829Y-87388306D01*
X119932053Y-87349119D01*
X119935428Y-87345609D01*
X120094219Y-87186818D01*
X120155542Y-87153333D01*
X120181900Y-87150499D01*
X120197376Y-87150499D01*
X120237163Y-87146177D01*
X120305935Y-87158507D01*
X120338234Y-87181771D01*
X120608822Y-87452359D01*
X120623949Y-87471088D01*
X120624890Y-87472122D01*
X120630448Y-87480730D01*
X120638493Y-87487072D01*
X120656575Y-87501327D01*
X120660978Y-87505240D01*
X120661037Y-87505170D01*
X120664940Y-87508477D01*
X120668558Y-87512095D01*
X120672720Y-87515069D01*
X120684097Y-87523199D01*
X120688748Y-87526690D01*
X120728620Y-87558123D01*
X120737169Y-87561125D01*
X120744539Y-87566392D01*
X120779525Y-87576855D01*
X120793134Y-87580925D01*
X120798692Y-87582731D01*
X120839203Y-87596958D01*
X120839213Y-87596960D01*
X120846568Y-87599543D01*
X120852075Y-87600020D01*
X120854758Y-87600020D01*
X120857360Y-87600133D01*
X120857435Y-87600155D01*
X120857428Y-87600324D01*
X120858152Y-87600370D01*
X120864306Y-87602210D01*
X120874545Y-87601808D01*
X120874548Y-87601808D01*
X120917600Y-87600116D01*
X120922468Y-87600020D01*
X121112050Y-87600020D01*
X121179089Y-87619705D01*
X121224844Y-87672509D01*
X121234788Y-87741667D01*
X121227581Y-87769060D01*
X121223671Y-87779090D01*
X121220954Y-87786059D01*
X121200403Y-87942158D01*
X121217680Y-88098653D01*
X121220247Y-88105668D01*
X121220249Y-88105676D01*
X121248680Y-88183366D01*
X121253234Y-88253087D01*
X121219370Y-88314202D01*
X121157841Y-88347307D01*
X121132233Y-88349980D01*
X120952804Y-88349980D01*
X120928869Y-88347433D01*
X120927468Y-88347367D01*
X120917454Y-88345211D01*
X120907281Y-88346415D01*
X120884418Y-88349121D01*
X120878536Y-88349468D01*
X120878543Y-88349558D01*
X120873438Y-88349980D01*
X120868327Y-88349980D01*
X120849467Y-88353119D01*
X120843688Y-88353941D01*
X120803488Y-88358699D01*
X120803486Y-88358700D01*
X120793310Y-88359904D01*
X120785143Y-88363826D01*
X120776207Y-88365313D01*
X120732540Y-88388875D01*
X120731563Y-88389402D01*
X120726360Y-88392054D01*
X120680620Y-88414017D01*
X120676389Y-88417574D01*
X120674503Y-88419460D01*
X120672573Y-88421231D01*
X120672520Y-88421259D01*
X120672403Y-88421132D01*
X120671846Y-88421623D01*
X120666191Y-88424674D01*
X120659231Y-88432203D01*
X120659230Y-88432204D01*
X120629967Y-88463861D01*
X120626592Y-88467371D01*
X120325735Y-88768228D01*
X120264412Y-88801713D01*
X120224662Y-88803822D01*
X120214568Y-88802726D01*
X120184877Y-88799500D01*
X120131899Y-88799500D01*
X120064860Y-88779815D01*
X120044218Y-88763181D01*
X119965698Y-88684661D01*
X119950571Y-88665932D01*
X119949630Y-88664898D01*
X119944072Y-88656290D01*
X119917945Y-88635693D01*
X119913542Y-88631780D01*
X119913483Y-88631850D01*
X119909580Y-88628543D01*
X119905962Y-88624925D01*
X119890420Y-88613819D01*
X119885772Y-88610330D01*
X119845900Y-88578897D01*
X119837351Y-88575895D01*
X119829981Y-88570628D01*
X119781377Y-88556092D01*
X119775824Y-88554288D01*
X119735317Y-88540063D01*
X119735314Y-88540062D01*
X119727952Y-88537477D01*
X119722445Y-88537000D01*
X119719761Y-88537000D01*
X119717159Y-88536887D01*
X119717085Y-88536865D01*
X119717092Y-88536696D01*
X119716367Y-88536650D01*
X119710213Y-88534810D01*
X119699974Y-88535212D01*
X119699971Y-88535212D01*
X119656919Y-88536904D01*
X119652051Y-88537000D01*
X118778137Y-88537000D01*
X118711098Y-88517315D01*
X118665343Y-88464511D01*
X118662028Y-88456528D01*
X118646628Y-88415449D01*
X118646626Y-88415445D01*
X118643526Y-88407176D01*
X118632407Y-88392339D01*
X118562841Y-88299519D01*
X118557546Y-88292454D01*
X118496244Y-88246510D01*
X118449891Y-88211770D01*
X118449889Y-88211769D01*
X118442824Y-88206474D01*
X118410774Y-88194459D01*
X118340462Y-88168101D01*
X118308580Y-88156149D01*
X118247377Y-88149500D01*
X117750075Y-88149500D01*
X117252624Y-88149501D01*
X117191420Y-88156149D01*
X117118818Y-88183366D01*
X117089227Y-88194459D01*
X117057176Y-88206474D01*
X117050111Y-88211769D01*
X117050109Y-88211770D01*
X117003756Y-88246510D01*
X116942454Y-88292454D01*
X116937159Y-88299519D01*
X116867594Y-88392339D01*
X116856474Y-88407176D01*
X116806149Y-88541420D01*
X116799500Y-88602623D01*
X116500000Y-88602623D01*
X116500000Y-83536835D01*
X116502383Y-83512644D01*
X116502515Y-83511980D01*
X116504898Y-83500000D01*
X116502515Y-83488021D01*
X116502515Y-83475807D01*
X116503149Y-83475807D01*
X116502486Y-83465229D01*
X116511715Y-83336200D01*
X116517180Y-83259789D01*
X116519697Y-83242282D01*
X116522740Y-83228297D01*
X116569001Y-83015638D01*
X116573985Y-82998662D01*
X116655046Y-82781330D01*
X116662396Y-82765237D01*
X116773557Y-82561660D01*
X116783122Y-82546777D01*
X116922123Y-82361093D01*
X116933709Y-82347722D01*
X117097722Y-82183709D01*
X117111093Y-82172123D01*
X117296777Y-82033122D01*
X117311660Y-82023557D01*
X117515237Y-81912396D01*
X117531330Y-81905046D01*
X117748662Y-81823985D01*
X117765638Y-81819001D01*
X117794272Y-81812772D01*
X117992287Y-81769696D01*
X118009789Y-81767180D01*
X118215232Y-81752486D01*
X118225807Y-81753149D01*
X118225807Y-81752515D01*
X118238021Y-81752515D01*
X118250000Y-81754898D01*
X118261980Y-81752515D01*
X118262644Y-81752383D01*
X118286835Y-81750000D01*
X134048951Y-81750000D01*
X134073142Y-81752383D01*
G37*
%TD.AperFunction*%
%TD*%
M02*
