%TF.GenerationSoftware,KiCad,Pcbnew,(6.0.0)*%
%TF.CreationDate,2022-01-09T14:56:00-05:00*%
%TF.ProjectId,QuadOpamp-INA_DIP8_Rg18,51756164-4f70-4616-9d70-2d494e415f44,rev?*%
%TF.SameCoordinates,Original*%
%TF.FileFunction,Copper,L2,Bot*%
%TF.FilePolarity,Positive*%
%FSLAX46Y46*%
G04 Gerber Fmt 4.6, Leading zero omitted, Abs format (unit mm)*
G04 Created by KiCad (PCBNEW (6.0.0)) date 2022-01-09 14:56:00*
%MOMM*%
%LPD*%
G01*
G04 APERTURE LIST*
G04 Aperture macros list*
%AMRoundRect*
0 Rectangle with rounded corners*
0 $1 Rounding radius*
0 $2 $3 $4 $5 $6 $7 $8 $9 X,Y pos of 4 corners*
0 Add a 4 corners polygon primitive as box body*
4,1,4,$2,$3,$4,$5,$6,$7,$8,$9,$2,$3,0*
0 Add four circle primitives for the rounded corners*
1,1,$1+$1,$2,$3*
1,1,$1+$1,$4,$5*
1,1,$1+$1,$6,$7*
1,1,$1+$1,$8,$9*
0 Add four rect primitives between the rounded corners*
20,1,$1+$1,$2,$3,$4,$5,0*
20,1,$1+$1,$4,$5,$6,$7,0*
20,1,$1+$1,$6,$7,$8,$9,0*
20,1,$1+$1,$8,$9,$2,$3,0*%
%AMFreePoly0*
4,1,22,0.500000,-0.750000,0.000000,-0.750000,0.000000,-0.745033,-0.079941,-0.743568,-0.215256,-0.701293,-0.333266,-0.622738,-0.424486,-0.514219,-0.481581,-0.384460,-0.499164,-0.250000,-0.500000,-0.250000,-0.500000,0.250000,-0.499164,0.250000,-0.499963,0.256109,-0.478152,0.396186,-0.417904,0.524511,-0.324060,0.630769,-0.204165,0.706417,-0.067858,0.745374,0.000000,0.744959,0.000000,0.750000,
0.500000,0.750000,0.500000,-0.750000,0.500000,-0.750000,$1*%
%AMFreePoly1*
4,1,20,0.000000,0.744959,0.073905,0.744508,0.209726,0.703889,0.328688,0.626782,0.421226,0.519385,0.479903,0.390333,0.500000,0.250000,0.500000,-0.250000,0.499851,-0.262216,0.476331,-0.402017,0.414519,-0.529596,0.319384,-0.634700,0.198574,-0.708877,0.061801,-0.746166,0.000000,-0.745033,0.000000,-0.750000,-0.500000,-0.750000,-0.500000,0.750000,0.000000,0.750000,0.000000,0.744959,
0.000000,0.744959,$1*%
G04 Aperture macros list end*
%TA.AperFunction,ComponentPad*%
%ADD10C,3.800000*%
%TD*%
%TA.AperFunction,ComponentPad*%
%ADD11R,1.600000X1.600000*%
%TD*%
%TA.AperFunction,ComponentPad*%
%ADD12O,1.600000X1.600000*%
%TD*%
%TA.AperFunction,SMDPad,CuDef*%
%ADD13RoundRect,0.250000X-0.262500X-0.450000X0.262500X-0.450000X0.262500X0.450000X-0.262500X0.450000X0*%
%TD*%
%TA.AperFunction,SMDPad,CuDef*%
%ADD14RoundRect,0.250000X0.250000X0.475000X-0.250000X0.475000X-0.250000X-0.475000X0.250000X-0.475000X0*%
%TD*%
%TA.AperFunction,SMDPad,CuDef*%
%ADD15FreePoly0,0.000000*%
%TD*%
%TA.AperFunction,SMDPad,CuDef*%
%ADD16FreePoly1,0.000000*%
%TD*%
%TA.AperFunction,SMDPad,CuDef*%
%ADD17RoundRect,0.250000X0.262500X0.450000X-0.262500X0.450000X-0.262500X-0.450000X0.262500X-0.450000X0*%
%TD*%
%TA.AperFunction,ViaPad*%
%ADD18C,0.800000*%
%TD*%
%TA.AperFunction,Conductor*%
%ADD19C,0.250000*%
%TD*%
G04 APERTURE END LIST*
D10*
%TO.P,H1,1,1*%
%TO.N,GND*%
X134000000Y-93000000D03*
%TD*%
D11*
%TO.P,J1,1,Pin_1*%
%TO.N,RG1*%
X120300000Y-91700000D03*
D12*
%TO.P,J1,2,Pin_2*%
%TO.N,Vin-*%
X122840000Y-91700000D03*
%TO.P,J1,3,Pin_3*%
%TO.N,Vin+*%
X125380000Y-91700000D03*
%TO.P,J1,4,Pin_4*%
%TO.N,-5V*%
X127920000Y-91700000D03*
%TO.P,J1,5,Pin_5*%
%TO.N,REF*%
X127920000Y-84080000D03*
%TO.P,J1,6,Pin_6*%
%TO.N,Vout*%
X125380000Y-84080000D03*
%TO.P,J1,7,Pin_7*%
%TO.N,+5V*%
X122840000Y-84080000D03*
%TO.P,J1,8,Pin_8*%
%TO.N,RG8*%
X120300000Y-84080000D03*
%TD*%
D13*
%TO.P,R4,1*%
%TO.N,Net-(R3-Pad2)*%
X126687500Y-89400000D03*
%TO.P,R4,2*%
%TO.N,REF*%
X128512500Y-89400000D03*
%TD*%
%TO.P,R1,1*%
%TO.N,Net-(R1-Pad1)*%
X125387500Y-86200000D03*
%TO.P,R1,2*%
%TO.N,Net-(R1-Pad2)*%
X127212500Y-86200000D03*
%TD*%
D14*
%TO.P,C1,1*%
%TO.N,+5V*%
X121000000Y-88000000D03*
%TO.P,C1,2*%
%TO.N,GND*%
X119100000Y-88000000D03*
%TD*%
D15*
%TO.P,JP1,1,A*%
%TO.N,REF*%
X129850000Y-84000000D03*
D16*
%TO.P,JP1,2,B*%
%TO.N,GND*%
X131150000Y-84000000D03*
%TD*%
D17*
%TO.P,R3,1*%
%TO.N,Net-(R6-Pad1)*%
X125012500Y-89400000D03*
%TO.P,R3,2*%
%TO.N,Net-(R3-Pad2)*%
X123187500Y-89400000D03*
%TD*%
D13*
%TO.P,R8,1*%
%TO.N,REF*%
X129500000Y-86250000D03*
%TO.P,R8,2*%
%TO.N,Net-(R7-Pad1)*%
X131325000Y-86250000D03*
%TD*%
D18*
%TO.N,Net-(R1-Pad1)*%
X124750000Y-85500000D03*
%TO.N,Net-(R1-Pad2)*%
X127250000Y-87250000D03*
%TO.N,Net-(R2-Pad2)*%
X130900500Y-87744150D03*
X129591210Y-90085485D03*
%TO.N,Net-(R6-Pad1)*%
X124500000Y-90250000D03*
%TO.N,Net-(R3-Pad2)*%
X127788000Y-88092353D03*
%TO.N,Net-(R7-Pad1)*%
X132510799Y-86716523D03*
%TO.N,GND*%
X117000000Y-83250000D03*
X130080000Y-82250000D03*
X123250000Y-94000000D03*
X123250000Y-82250000D03*
X128250000Y-94000000D03*
X127540000Y-82250000D03*
X120710000Y-82250000D03*
X125000000Y-82250000D03*
X135335786Y-85670000D03*
X126250000Y-87500000D03*
X131670000Y-82250000D03*
X130790000Y-94000000D03*
X134210000Y-82250000D03*
X120710000Y-94000000D03*
X117000000Y-90870000D03*
X117000000Y-93410000D03*
X129500000Y-91500000D03*
X118170000Y-82250000D03*
X131250000Y-92750000D03*
X118170000Y-94000000D03*
X135335786Y-88210000D03*
X125790000Y-94000000D03*
X134250000Y-90250000D03*
X118500000Y-90000000D03*
X117000000Y-85790000D03*
X135335786Y-83130000D03*
X118500000Y-85750000D03*
X135335786Y-90750000D03*
%TO.N,+5V*%
X121855645Y-87949020D03*
%TO.N,-5V*%
X132699500Y-89750000D03*
%TD*%
D19*
%TO.N,Net-(R1-Pad1)*%
X125387500Y-86200000D02*
X125387500Y-86137500D01*
X125387500Y-86137500D02*
X124750000Y-85500000D01*
%TO.N,Net-(R1-Pad2)*%
X127250000Y-87250000D02*
X127250000Y-86237500D01*
X127250000Y-86237500D02*
X127212500Y-86200000D01*
%TO.N,Net-(R2-Pad2)*%
X129591210Y-89053440D02*
X129591210Y-90085485D01*
X130900500Y-87744150D02*
X129591210Y-89053440D01*
%TO.N,Net-(R6-Pad1)*%
X125012500Y-89737500D02*
X124500000Y-90250000D01*
X125012500Y-89400000D02*
X125012500Y-89737500D01*
%TO.N,Net-(R3-Pad2)*%
X127630353Y-88250000D02*
X124337500Y-88250000D01*
X127788000Y-88092353D02*
X127630353Y-88250000D01*
X126687500Y-89400000D02*
X126687500Y-89192853D01*
X124337500Y-88250000D02*
X123187500Y-89400000D01*
X126687500Y-89192853D02*
X127788000Y-88092353D01*
%TO.N,REF*%
X128512500Y-89400000D02*
X128512500Y-86262500D01*
X129850000Y-84000000D02*
X128000000Y-84000000D01*
X129500000Y-86250000D02*
X129487500Y-86262500D01*
X129487500Y-86262500D02*
X128512500Y-86262500D01*
X128512500Y-86262500D02*
X128512500Y-84672500D01*
X128512500Y-84672500D02*
X127920000Y-84080000D01*
X128000000Y-84000000D02*
X127920000Y-84080000D01*
%TO.N,Net-(R7-Pad1)*%
X132044276Y-86250000D02*
X132510799Y-86716523D01*
X131325000Y-86250000D02*
X132044276Y-86250000D01*
%TO.N,+5V*%
X121855645Y-87949020D02*
X121855645Y-85064355D01*
X121804665Y-88000000D02*
X121000000Y-88000000D01*
X121855645Y-85064355D02*
X122840000Y-84080000D01*
X121855645Y-87949020D02*
X121804665Y-88000000D01*
%TO.N,-5V*%
X128720000Y-92500000D02*
X130250000Y-92500000D01*
X132699500Y-90050500D02*
X132699500Y-89750000D01*
X127920000Y-91700000D02*
X128720000Y-92500000D01*
X130250000Y-92500000D02*
X132699500Y-90050500D01*
%TD*%
%TA.AperFunction,Conductor*%
%TO.N,GND*%
G36*
X134073142Y-81752383D02*
G01*
X134085786Y-81754898D01*
X134097765Y-81752515D01*
X134109979Y-81752515D01*
X134109979Y-81753149D01*
X134120554Y-81752486D01*
X134325997Y-81767180D01*
X134343499Y-81769696D01*
X134541514Y-81812772D01*
X134570148Y-81819001D01*
X134587124Y-81823985D01*
X134804456Y-81905046D01*
X134820549Y-81912396D01*
X135024126Y-82023557D01*
X135039009Y-82033122D01*
X135224693Y-82172123D01*
X135238064Y-82183709D01*
X135402077Y-82347722D01*
X135413663Y-82361093D01*
X135552664Y-82546777D01*
X135562229Y-82561660D01*
X135673390Y-82765237D01*
X135680740Y-82781330D01*
X135761801Y-82998662D01*
X135766785Y-83015638D01*
X135813047Y-83228297D01*
X135816089Y-83242282D01*
X135818606Y-83259789D01*
X135825805Y-83360430D01*
X135833300Y-83465229D01*
X135832637Y-83475807D01*
X135833271Y-83475807D01*
X135833271Y-83488021D01*
X135830888Y-83500000D01*
X135833271Y-83511980D01*
X135833403Y-83512644D01*
X135835786Y-83536835D01*
X135835786Y-91447215D01*
X135816101Y-91514254D01*
X135763297Y-91560009D01*
X135694139Y-91569953D01*
X135664586Y-91559030D01*
X135657000Y-91559076D01*
X135647205Y-91564927D01*
X132566653Y-94645479D01*
X132544840Y-94685427D01*
X132495435Y-94734832D01*
X132436008Y-94750000D01*
X118286835Y-94750000D01*
X118262644Y-94747617D01*
X118261980Y-94747485D01*
X118250000Y-94745102D01*
X118238021Y-94747485D01*
X118225807Y-94747485D01*
X118225807Y-94746851D01*
X118215232Y-94747514D01*
X118009789Y-94732820D01*
X117992287Y-94730304D01*
X117765639Y-94680999D01*
X117748662Y-94676015D01*
X117531330Y-94594954D01*
X117515237Y-94587604D01*
X117311660Y-94476443D01*
X117296777Y-94466878D01*
X117111093Y-94327877D01*
X117097722Y-94316291D01*
X116933709Y-94152278D01*
X116922123Y-94138907D01*
X116783122Y-93953223D01*
X116773557Y-93938340D01*
X116662396Y-93734763D01*
X116655046Y-93718670D01*
X116573985Y-93501338D01*
X116569001Y-93484362D01*
X116525354Y-93283721D01*
X116519696Y-93257713D01*
X116517179Y-93240206D01*
X116502486Y-93034771D01*
X116503149Y-93024193D01*
X116502515Y-93024193D01*
X116502515Y-93011979D01*
X116504091Y-93004058D01*
X131795546Y-93004058D01*
X131813876Y-93283721D01*
X131814934Y-93291757D01*
X131869610Y-93566632D01*
X131871713Y-93574479D01*
X131961798Y-93839863D01*
X131964900Y-93847351D01*
X132088861Y-94098720D01*
X132092911Y-94105734D01*
X132248618Y-94338766D01*
X132253560Y-94345206D01*
X132330158Y-94432549D01*
X132343187Y-94440813D01*
X132352795Y-94435073D01*
X133775261Y-93012607D01*
X133782753Y-92998887D01*
X133782624Y-92997081D01*
X133778442Y-92990574D01*
X132354521Y-91566653D01*
X132340980Y-91559259D01*
X132331768Y-91565615D01*
X132253560Y-91654794D01*
X132248618Y-91661234D01*
X132092911Y-91894266D01*
X132088861Y-91901280D01*
X131964900Y-92152649D01*
X131961798Y-92160137D01*
X131871713Y-92425521D01*
X131869610Y-92433368D01*
X131814934Y-92708243D01*
X131813876Y-92716279D01*
X131795546Y-92995942D01*
X131795546Y-93004058D01*
X116504091Y-93004058D01*
X116504898Y-93000000D01*
X116502383Y-92987356D01*
X116500000Y-92963165D01*
X116500000Y-92524674D01*
X119249500Y-92524674D01*
X119264034Y-92597740D01*
X119270820Y-92607896D01*
X119311763Y-92669172D01*
X119319399Y-92680601D01*
X119402260Y-92735966D01*
X119436313Y-92742740D01*
X119469347Y-92749311D01*
X119469350Y-92749311D01*
X119475326Y-92750500D01*
X121124674Y-92750500D01*
X121130650Y-92749311D01*
X121130653Y-92749311D01*
X121163687Y-92742740D01*
X121197740Y-92735966D01*
X121280601Y-92680601D01*
X121288238Y-92669172D01*
X121329180Y-92607896D01*
X121335966Y-92597740D01*
X121350500Y-92524674D01*
X121350500Y-91685262D01*
X121784520Y-91685262D01*
X121801759Y-91890553D01*
X121858544Y-92088586D01*
X121861316Y-92093981D01*
X121861317Y-92093982D01*
X121875545Y-92121666D01*
X121952712Y-92271818D01*
X121956480Y-92276572D01*
X121985402Y-92313062D01*
X122080677Y-92433270D01*
X122085296Y-92437201D01*
X122232950Y-92562865D01*
X122232955Y-92562869D01*
X122237564Y-92566791D01*
X122417398Y-92667297D01*
X122543417Y-92708243D01*
X122603727Y-92727839D01*
X122613329Y-92730959D01*
X122619347Y-92731677D01*
X122619349Y-92731677D01*
X122744235Y-92746568D01*
X122817894Y-92755351D01*
X122823938Y-92754886D01*
X122823939Y-92754886D01*
X122896391Y-92749311D01*
X123023300Y-92739546D01*
X123108596Y-92715731D01*
X123215885Y-92685776D01*
X123215889Y-92685774D01*
X123221725Y-92684145D01*
X123405610Y-92591258D01*
X123567951Y-92464424D01*
X123571907Y-92459840D01*
X123571911Y-92459837D01*
X123698602Y-92313062D01*
X123702564Y-92308472D01*
X123723387Y-92271818D01*
X123801327Y-92134618D01*
X123804323Y-92129344D01*
X123869351Y-91933863D01*
X123873468Y-91901280D01*
X123894736Y-91732919D01*
X123894736Y-91732915D01*
X123895171Y-91729474D01*
X123895583Y-91700000D01*
X123882832Y-91569953D01*
X123876072Y-91501006D01*
X123876072Y-91501004D01*
X123875480Y-91494970D01*
X123833076Y-91354521D01*
X123817688Y-91303555D01*
X123815935Y-91297749D01*
X123719218Y-91115849D01*
X123589011Y-90956200D01*
X123523681Y-90902154D01*
X123434946Y-90828746D01*
X123434945Y-90828745D01*
X123430275Y-90824882D01*
X123267844Y-90737056D01*
X123254393Y-90729783D01*
X123254391Y-90729782D01*
X123249055Y-90726897D01*
X123239991Y-90724091D01*
X123058046Y-90667770D01*
X123058047Y-90667770D01*
X123052254Y-90665977D01*
X122847369Y-90644443D01*
X122841336Y-90644992D01*
X122841332Y-90644992D01*
X122715721Y-90656424D01*
X122642203Y-90663114D01*
X122636390Y-90664825D01*
X122636389Y-90664825D01*
X122504331Y-90703692D01*
X122444572Y-90721280D01*
X122414396Y-90737056D01*
X122267374Y-90813917D01*
X122267370Y-90813920D01*
X122262002Y-90816726D01*
X122257279Y-90820523D01*
X122257278Y-90820524D01*
X122133504Y-90920041D01*
X122101447Y-90945815D01*
X121969024Y-91103630D01*
X121869776Y-91284162D01*
X121867942Y-91289944D01*
X121867941Y-91289946D01*
X121851752Y-91340980D01*
X121807484Y-91480532D01*
X121800731Y-91540738D01*
X121787938Y-91654794D01*
X121784520Y-91685262D01*
X121350500Y-91685262D01*
X121350500Y-90875326D01*
X121343922Y-90842254D01*
X121339599Y-90820524D01*
X121335966Y-90802260D01*
X121280601Y-90719399D01*
X121197740Y-90664034D01*
X121163687Y-90657260D01*
X121130653Y-90650689D01*
X121130650Y-90650689D01*
X121124674Y-90649500D01*
X119475326Y-90649500D01*
X119469350Y-90650689D01*
X119469347Y-90650689D01*
X119436313Y-90657260D01*
X119402260Y-90664034D01*
X119319399Y-90719399D01*
X119264034Y-90802260D01*
X119260401Y-90820524D01*
X119256079Y-90842254D01*
X119249500Y-90875326D01*
X119249500Y-92524674D01*
X116500000Y-92524674D01*
X116500000Y-88514004D01*
X118300000Y-88514004D01*
X118300448Y-88521433D01*
X118309897Y-88599521D01*
X118313786Y-88614833D01*
X118363214Y-88739674D01*
X118371439Y-88754270D01*
X118452325Y-88860833D01*
X118464167Y-88872675D01*
X118570730Y-88953561D01*
X118585326Y-88961786D01*
X118710167Y-89011214D01*
X118725479Y-89015103D01*
X118803567Y-89024552D01*
X118810996Y-89025000D01*
X118932170Y-89025000D01*
X118947169Y-89020596D01*
X118948356Y-89019226D01*
X118950000Y-89011668D01*
X118950000Y-89007170D01*
X119250000Y-89007170D01*
X119254404Y-89022169D01*
X119255774Y-89023356D01*
X119263332Y-89025000D01*
X119389004Y-89025000D01*
X119396433Y-89024552D01*
X119474521Y-89015103D01*
X119489833Y-89011214D01*
X119614674Y-88961786D01*
X119629270Y-88953561D01*
X119735833Y-88872675D01*
X119747675Y-88860833D01*
X119828561Y-88754270D01*
X119836786Y-88739674D01*
X119886214Y-88614833D01*
X119890103Y-88599521D01*
X119899552Y-88521433D01*
X119900000Y-88514004D01*
X119900000Y-88167830D01*
X119895596Y-88152831D01*
X119894226Y-88151644D01*
X119886668Y-88150000D01*
X119267830Y-88150000D01*
X119252831Y-88154404D01*
X119251644Y-88155774D01*
X119250000Y-88163332D01*
X119250000Y-89007170D01*
X118950000Y-89007170D01*
X118950000Y-88167830D01*
X118945596Y-88152831D01*
X118944226Y-88151644D01*
X118936668Y-88150000D01*
X118317830Y-88150000D01*
X118302831Y-88154404D01*
X118301644Y-88155774D01*
X118300000Y-88163332D01*
X118300000Y-88514004D01*
X116500000Y-88514004D01*
X116500000Y-87832170D01*
X118300000Y-87832170D01*
X118304404Y-87847169D01*
X118305774Y-87848356D01*
X118313332Y-87850000D01*
X118932170Y-87850000D01*
X118947169Y-87845596D01*
X118948356Y-87844226D01*
X118950000Y-87836668D01*
X118950000Y-87832170D01*
X119250000Y-87832170D01*
X119254404Y-87847169D01*
X119255774Y-87848356D01*
X119263332Y-87850000D01*
X119882170Y-87850000D01*
X119897169Y-87845596D01*
X119898356Y-87844226D01*
X119900000Y-87836668D01*
X119900000Y-87485996D01*
X119899552Y-87478567D01*
X119899438Y-87477623D01*
X120249500Y-87477623D01*
X120249501Y-88522376D01*
X120256149Y-88583580D01*
X120306474Y-88717824D01*
X120311769Y-88724889D01*
X120311770Y-88724891D01*
X120346978Y-88771868D01*
X120392454Y-88832546D01*
X120399519Y-88837841D01*
X120500109Y-88913230D01*
X120500111Y-88913231D01*
X120507176Y-88918526D01*
X120641420Y-88968851D01*
X120702623Y-88975500D01*
X120999955Y-88975500D01*
X121297376Y-88975499D01*
X121358580Y-88968851D01*
X121492824Y-88918526D01*
X121499889Y-88913231D01*
X121499891Y-88913230D01*
X121514044Y-88902623D01*
X122424500Y-88902623D01*
X122424501Y-89897376D01*
X122431149Y-89958580D01*
X122481474Y-90092824D01*
X122486769Y-90099889D01*
X122486770Y-90099891D01*
X122560596Y-90198395D01*
X122567454Y-90207546D01*
X122574519Y-90212841D01*
X122675109Y-90288230D01*
X122675111Y-90288231D01*
X122682176Y-90293526D01*
X122816420Y-90343851D01*
X122877623Y-90350500D01*
X123187453Y-90350500D01*
X123497376Y-90350499D01*
X123558580Y-90343851D01*
X123692824Y-90293526D01*
X123693937Y-90296495D01*
X123746960Y-90284890D01*
X123812455Y-90309224D01*
X123854397Y-90365105D01*
X123859145Y-90385012D01*
X123859508Y-90384927D01*
X123861215Y-90392207D01*
X123862035Y-90399633D01*
X123916143Y-90547490D01*
X124003958Y-90678172D01*
X124049266Y-90719399D01*
X124114878Y-90779102D01*
X124114882Y-90779105D01*
X124120410Y-90784135D01*
X124126980Y-90787702D01*
X124126981Y-90787703D01*
X124227451Y-90842254D01*
X124258776Y-90859262D01*
X124343242Y-90881421D01*
X124403841Y-90897319D01*
X124403843Y-90897319D01*
X124411069Y-90899215D01*
X124418538Y-90899332D01*
X124425952Y-90900348D01*
X124425705Y-90902154D01*
X124483248Y-90920041D01*
X124528164Y-90973561D01*
X124537015Y-91042867D01*
X124514299Y-91092576D01*
X124516349Y-91093980D01*
X124512924Y-91098982D01*
X124509024Y-91103630D01*
X124409776Y-91284162D01*
X124407942Y-91289944D01*
X124407941Y-91289946D01*
X124391752Y-91340980D01*
X124347484Y-91480532D01*
X124340731Y-91540738D01*
X124327938Y-91654794D01*
X124324520Y-91685262D01*
X124341759Y-91890553D01*
X124398544Y-92088586D01*
X124401316Y-92093981D01*
X124401317Y-92093982D01*
X124415545Y-92121666D01*
X124492712Y-92271818D01*
X124496480Y-92276572D01*
X124525402Y-92313062D01*
X124620677Y-92433270D01*
X124625296Y-92437201D01*
X124772950Y-92562865D01*
X124772955Y-92562869D01*
X124777564Y-92566791D01*
X124957398Y-92667297D01*
X125083417Y-92708243D01*
X125143727Y-92727839D01*
X125153329Y-92730959D01*
X125159347Y-92731677D01*
X125159349Y-92731677D01*
X125284235Y-92746568D01*
X125357894Y-92755351D01*
X125363938Y-92754886D01*
X125363939Y-92754886D01*
X125436391Y-92749311D01*
X125563300Y-92739546D01*
X125648596Y-92715731D01*
X125755885Y-92685776D01*
X125755889Y-92685774D01*
X125761725Y-92684145D01*
X125945610Y-92591258D01*
X126107951Y-92464424D01*
X126111907Y-92459840D01*
X126111911Y-92459837D01*
X126238602Y-92313062D01*
X126242564Y-92308472D01*
X126263387Y-92271818D01*
X126341327Y-92134618D01*
X126344323Y-92129344D01*
X126409351Y-91933863D01*
X126413468Y-91901280D01*
X126434736Y-91732919D01*
X126434736Y-91732915D01*
X126435171Y-91729474D01*
X126435583Y-91700000D01*
X126434138Y-91685262D01*
X126864520Y-91685262D01*
X126881759Y-91890553D01*
X126938544Y-92088586D01*
X126941316Y-92093981D01*
X126941317Y-92093982D01*
X126955545Y-92121666D01*
X127032712Y-92271818D01*
X127036480Y-92276572D01*
X127065402Y-92313062D01*
X127160677Y-92433270D01*
X127165296Y-92437201D01*
X127312950Y-92562865D01*
X127312955Y-92562869D01*
X127317564Y-92566791D01*
X127497398Y-92667297D01*
X127623417Y-92708243D01*
X127683727Y-92727839D01*
X127693329Y-92730959D01*
X127699347Y-92731677D01*
X127699349Y-92731677D01*
X127824235Y-92746568D01*
X127897894Y-92755351D01*
X127903938Y-92754886D01*
X127903939Y-92754886D01*
X127976391Y-92749311D01*
X128103300Y-92739546D01*
X128287739Y-92688050D01*
X128357600Y-92688981D01*
X128408764Y-92719801D01*
X128416802Y-92727839D01*
X128431929Y-92746568D01*
X128432870Y-92747602D01*
X128438428Y-92756210D01*
X128446473Y-92762552D01*
X128464555Y-92776807D01*
X128468958Y-92780720D01*
X128469017Y-92780650D01*
X128472920Y-92783957D01*
X128476538Y-92787575D01*
X128480700Y-92790549D01*
X128492077Y-92798679D01*
X128496728Y-92802170D01*
X128536600Y-92833603D01*
X128545149Y-92836605D01*
X128552519Y-92841872D01*
X128562336Y-92844808D01*
X128562338Y-92844809D01*
X128601127Y-92856409D01*
X128606685Y-92858215D01*
X128647186Y-92872438D01*
X128647188Y-92872439D01*
X128654548Y-92875023D01*
X128660055Y-92875500D01*
X128662738Y-92875500D01*
X128665337Y-92875613D01*
X128665415Y-92875636D01*
X128665408Y-92875804D01*
X128666129Y-92875849D01*
X128672287Y-92877691D01*
X128682525Y-92877289D01*
X128682527Y-92877289D01*
X128725606Y-92875596D01*
X128730474Y-92875500D01*
X130196716Y-92875500D01*
X130220651Y-92878047D01*
X130222052Y-92878113D01*
X130232066Y-92880269D01*
X130242239Y-92879065D01*
X130265102Y-92876359D01*
X130270984Y-92876012D01*
X130270977Y-92875922D01*
X130276082Y-92875500D01*
X130281193Y-92875500D01*
X130300053Y-92872361D01*
X130305832Y-92871539D01*
X130346032Y-92866781D01*
X130346034Y-92866780D01*
X130356210Y-92865576D01*
X130364377Y-92861654D01*
X130373313Y-92860167D01*
X130417958Y-92836077D01*
X130423163Y-92833425D01*
X130461867Y-92814840D01*
X130461866Y-92814840D01*
X130468900Y-92811463D01*
X130473131Y-92807906D01*
X130475017Y-92806020D01*
X130476947Y-92804249D01*
X130477000Y-92804221D01*
X130477117Y-92804348D01*
X130477674Y-92803857D01*
X130483329Y-92800806D01*
X130492811Y-92790549D01*
X130519553Y-92761619D01*
X130522928Y-92758109D01*
X131937850Y-91343187D01*
X132559187Y-91343187D01*
X132564927Y-91352795D01*
X133987393Y-92775261D01*
X134001113Y-92782753D01*
X134002919Y-92782624D01*
X134009426Y-92778442D01*
X135433347Y-91354521D01*
X135440741Y-91340980D01*
X135434385Y-91331768D01*
X135345206Y-91253560D01*
X135338766Y-91248618D01*
X135105734Y-91092911D01*
X135098720Y-91088861D01*
X134847351Y-90964900D01*
X134839863Y-90961798D01*
X134574479Y-90871713D01*
X134566632Y-90869610D01*
X134291757Y-90814934D01*
X134283721Y-90813876D01*
X134004058Y-90795546D01*
X133995942Y-90795546D01*
X133716279Y-90813876D01*
X133708243Y-90814934D01*
X133433368Y-90869610D01*
X133425521Y-90871713D01*
X133160137Y-90961798D01*
X133152649Y-90964900D01*
X132901280Y-91088861D01*
X132894266Y-91092911D01*
X132661234Y-91248618D01*
X132654794Y-91253560D01*
X132567451Y-91330158D01*
X132559187Y-91343187D01*
X131937850Y-91343187D01*
X132893325Y-90387712D01*
X132925291Y-90364615D01*
X132954078Y-90350137D01*
X133062125Y-90295795D01*
X133067806Y-90290943D01*
X133067809Y-90290941D01*
X133176166Y-90198395D01*
X133176167Y-90198394D01*
X133181848Y-90193542D01*
X133273724Y-90065683D01*
X133332450Y-89919598D01*
X133335138Y-89900714D01*
X133354062Y-89767744D01*
X133354062Y-89767740D01*
X133354634Y-89763723D01*
X133354778Y-89750000D01*
X133351391Y-89722008D01*
X133336762Y-89601119D01*
X133336761Y-89601115D01*
X133335863Y-89593694D01*
X133280210Y-89446412D01*
X133271837Y-89434229D01*
X133195268Y-89322821D01*
X133195265Y-89322818D01*
X133191031Y-89316657D01*
X133127821Y-89260339D01*
X133079059Y-89216893D01*
X133079058Y-89216892D01*
X133073476Y-89211919D01*
X132934331Y-89138245D01*
X132781628Y-89099889D01*
X132699829Y-89099461D01*
X132631658Y-89099104D01*
X132631657Y-89099104D01*
X132624184Y-89099065D01*
X132616921Y-89100809D01*
X132616918Y-89100809D01*
X132547636Y-89117443D01*
X132471088Y-89135820D01*
X132331179Y-89208032D01*
X132212534Y-89311533D01*
X132122001Y-89440348D01*
X132064809Y-89587039D01*
X132044258Y-89743138D01*
X132045078Y-89750566D01*
X132045078Y-89750568D01*
X132046974Y-89767744D01*
X132061535Y-89899633D01*
X132064101Y-89906645D01*
X132064102Y-89906649D01*
X132103400Y-90014035D01*
X132107953Y-90083757D01*
X132074633Y-90144330D01*
X130130782Y-92088181D01*
X130069459Y-92121666D01*
X130043101Y-92124500D01*
X129057865Y-92124500D01*
X128990826Y-92104815D01*
X128945071Y-92052011D01*
X128935127Y-91982853D01*
X128940205Y-91961358D01*
X128947438Y-91939616D01*
X128947440Y-91939609D01*
X128949351Y-91933863D01*
X128953468Y-91901280D01*
X128974736Y-91732919D01*
X128974736Y-91732915D01*
X128975171Y-91729474D01*
X128975583Y-91700000D01*
X128962832Y-91569953D01*
X128956072Y-91501006D01*
X128956072Y-91501004D01*
X128955480Y-91494970D01*
X128913076Y-91354521D01*
X128897688Y-91303555D01*
X128895935Y-91297749D01*
X128799218Y-91115849D01*
X128669011Y-90956200D01*
X128603681Y-90902154D01*
X128514946Y-90828746D01*
X128514945Y-90828745D01*
X128510275Y-90824882D01*
X128347844Y-90737056D01*
X128334393Y-90729783D01*
X128334391Y-90729782D01*
X128329055Y-90726897D01*
X128319991Y-90724091D01*
X128138046Y-90667770D01*
X128138047Y-90667770D01*
X128132254Y-90665977D01*
X127927369Y-90644443D01*
X127921336Y-90644992D01*
X127921332Y-90644992D01*
X127795721Y-90656424D01*
X127722203Y-90663114D01*
X127716390Y-90664825D01*
X127716389Y-90664825D01*
X127584331Y-90703692D01*
X127524572Y-90721280D01*
X127494396Y-90737056D01*
X127347374Y-90813917D01*
X127347370Y-90813920D01*
X127342002Y-90816726D01*
X127337279Y-90820523D01*
X127337278Y-90820524D01*
X127213504Y-90920041D01*
X127181447Y-90945815D01*
X127049024Y-91103630D01*
X126949776Y-91284162D01*
X126947942Y-91289944D01*
X126947941Y-91289946D01*
X126931752Y-91340980D01*
X126887484Y-91480532D01*
X126880731Y-91540738D01*
X126867938Y-91654794D01*
X126864520Y-91685262D01*
X126434138Y-91685262D01*
X126422832Y-91569953D01*
X126416072Y-91501006D01*
X126416072Y-91501004D01*
X126415480Y-91494970D01*
X126373076Y-91354521D01*
X126357688Y-91303555D01*
X126355935Y-91297749D01*
X126259218Y-91115849D01*
X126129011Y-90956200D01*
X126063681Y-90902154D01*
X125974946Y-90828746D01*
X125974945Y-90828745D01*
X125970275Y-90824882D01*
X125807844Y-90737056D01*
X125794393Y-90729783D01*
X125794391Y-90729782D01*
X125789055Y-90726897D01*
X125779991Y-90724091D01*
X125598046Y-90667770D01*
X125598047Y-90667770D01*
X125592254Y-90665977D01*
X125387369Y-90644443D01*
X125381336Y-90644992D01*
X125381332Y-90644992D01*
X125318735Y-90650689D01*
X125231380Y-90658639D01*
X125162835Y-90645111D01*
X125112482Y-90596671D01*
X125096312Y-90528699D01*
X125105092Y-90488899D01*
X125129473Y-90428249D01*
X125172742Y-90373389D01*
X125244525Y-90350499D01*
X125322376Y-90350499D01*
X125383580Y-90343851D01*
X125517824Y-90293526D01*
X125524889Y-90288231D01*
X125524891Y-90288230D01*
X125625481Y-90212841D01*
X125632546Y-90207546D01*
X125639404Y-90198395D01*
X125713230Y-90099891D01*
X125713231Y-90099889D01*
X125718526Y-90092824D01*
X125721626Y-90084554D01*
X125721629Y-90084549D01*
X125733891Y-90051840D01*
X125775855Y-89995976D01*
X125841360Y-89971668D01*
X125909608Y-89986634D01*
X125958931Y-90036121D01*
X125966109Y-90051840D01*
X125978371Y-90084549D01*
X125978374Y-90084554D01*
X125981474Y-90092824D01*
X125986769Y-90099889D01*
X125986770Y-90099891D01*
X126060596Y-90198395D01*
X126067454Y-90207546D01*
X126074519Y-90212841D01*
X126175109Y-90288230D01*
X126175111Y-90288231D01*
X126182176Y-90293526D01*
X126316420Y-90343851D01*
X126377623Y-90350500D01*
X126687453Y-90350500D01*
X126997376Y-90350499D01*
X127058580Y-90343851D01*
X127192824Y-90293526D01*
X127199889Y-90288231D01*
X127199891Y-90288230D01*
X127300481Y-90212841D01*
X127307546Y-90207546D01*
X127314404Y-90198395D01*
X127388230Y-90099891D01*
X127388231Y-90099889D01*
X127393526Y-90092824D01*
X127443851Y-89958580D01*
X127450500Y-89897377D01*
X127450499Y-89012253D01*
X127470183Y-88945214D01*
X127486818Y-88924572D01*
X127537819Y-88873571D01*
X127599142Y-88840086D01*
X127668834Y-88845070D01*
X127724767Y-88886942D01*
X127749184Y-88952406D01*
X127749500Y-88961252D01*
X127749501Y-89897376D01*
X127756149Y-89958580D01*
X127806474Y-90092824D01*
X127811769Y-90099889D01*
X127811770Y-90099891D01*
X127885596Y-90198395D01*
X127892454Y-90207546D01*
X127899519Y-90212841D01*
X128000109Y-90288230D01*
X128000111Y-90288231D01*
X128007176Y-90293526D01*
X128141420Y-90343851D01*
X128202623Y-90350500D01*
X128512453Y-90350500D01*
X128822376Y-90350499D01*
X128883580Y-90343851D01*
X128885799Y-90343019D01*
X128953179Y-90346537D01*
X129009908Y-90387324D01*
X129015010Y-90394370D01*
X129095168Y-90513657D01*
X129149903Y-90563462D01*
X129206088Y-90614587D01*
X129206092Y-90614590D01*
X129211620Y-90619620D01*
X129218190Y-90623187D01*
X129218191Y-90623188D01*
X129305918Y-90670820D01*
X129349986Y-90694747D01*
X129443955Y-90719399D01*
X129495051Y-90732804D01*
X129495053Y-90732804D01*
X129502279Y-90734700D01*
X129579337Y-90735910D01*
X129652235Y-90737056D01*
X129652238Y-90737056D01*
X129659705Y-90737173D01*
X129666986Y-90735505D01*
X129666990Y-90735505D01*
X129805891Y-90703692D01*
X129813178Y-90702023D01*
X129953835Y-90631280D01*
X129959516Y-90626428D01*
X129959519Y-90626426D01*
X130067876Y-90533880D01*
X130067877Y-90533879D01*
X130073558Y-90529027D01*
X130084603Y-90513657D01*
X130145974Y-90428249D01*
X130165434Y-90401168D01*
X130224160Y-90255083D01*
X130230172Y-90212841D01*
X130245772Y-90103229D01*
X130245772Y-90103225D01*
X130246344Y-90099208D01*
X130246488Y-90085485D01*
X130241890Y-90047490D01*
X130228472Y-89936604D01*
X130228471Y-89936600D01*
X130227573Y-89929179D01*
X130213602Y-89892205D01*
X130174564Y-89788893D01*
X130174562Y-89788890D01*
X130171920Y-89781897D01*
X130147226Y-89745967D01*
X130086978Y-89658306D01*
X130086975Y-89658303D01*
X130082741Y-89652142D01*
X130008221Y-89585747D01*
X129971262Y-89526453D01*
X129966710Y-89493164D01*
X129966710Y-89260339D01*
X129986395Y-89193300D01*
X130003029Y-89172658D01*
X130745647Y-88430041D01*
X130806970Y-88396556D01*
X130835272Y-88393737D01*
X130903936Y-88394816D01*
X130961525Y-88395721D01*
X130961528Y-88395721D01*
X130968995Y-88395838D01*
X130976276Y-88394170D01*
X130976280Y-88394170D01*
X131115181Y-88362357D01*
X131122468Y-88360688D01*
X131263125Y-88289945D01*
X131268806Y-88285093D01*
X131268809Y-88285091D01*
X131377166Y-88192545D01*
X131377167Y-88192544D01*
X131382848Y-88187692D01*
X131400353Y-88163332D01*
X131414298Y-88143925D01*
X131474724Y-88059833D01*
X131533450Y-87913748D01*
X131536854Y-87889833D01*
X131555062Y-87761894D01*
X131555062Y-87761890D01*
X131555634Y-87757873D01*
X131555778Y-87744150D01*
X131554051Y-87729877D01*
X131537762Y-87595269D01*
X131537761Y-87595265D01*
X131536863Y-87587844D01*
X131511923Y-87521841D01*
X131483854Y-87447558D01*
X131483852Y-87447555D01*
X131481210Y-87440562D01*
X131469928Y-87424146D01*
X131449713Y-87394734D01*
X131427963Y-87328335D01*
X131445564Y-87260719D01*
X131496927Y-87213352D01*
X131551903Y-87200499D01*
X131634876Y-87200499D01*
X131696080Y-87193851D01*
X131812692Y-87150136D01*
X131822055Y-87146626D01*
X131822056Y-87146626D01*
X131830324Y-87143526D01*
X131837390Y-87138230D01*
X131837396Y-87138227D01*
X131849807Y-87128925D01*
X131915257Y-87104470D01*
X131983538Y-87119283D01*
X132014434Y-87144214D01*
X132014757Y-87144695D01*
X132020286Y-87149726D01*
X132125677Y-87245625D01*
X132125681Y-87245628D01*
X132131209Y-87250658D01*
X132137779Y-87254225D01*
X132137780Y-87254226D01*
X132204487Y-87290445D01*
X132269575Y-87325785D01*
X132371830Y-87352611D01*
X132414640Y-87363842D01*
X132414642Y-87363842D01*
X132421868Y-87365738D01*
X132498926Y-87366948D01*
X132571824Y-87368094D01*
X132571827Y-87368094D01*
X132579294Y-87368211D01*
X132586575Y-87366543D01*
X132586579Y-87366543D01*
X132725480Y-87334730D01*
X132732767Y-87333061D01*
X132873424Y-87262318D01*
X132879105Y-87257466D01*
X132879108Y-87257464D01*
X132987465Y-87164918D01*
X132987466Y-87164917D01*
X132993147Y-87160065D01*
X133000577Y-87149726D01*
X133035504Y-87101119D01*
X133085023Y-87032206D01*
X133143749Y-86886121D01*
X133147848Y-86857323D01*
X133165361Y-86734267D01*
X133165361Y-86734263D01*
X133165933Y-86730246D01*
X133166077Y-86716523D01*
X133163760Y-86697376D01*
X133148061Y-86567642D01*
X133148060Y-86567638D01*
X133147162Y-86560217D01*
X133091509Y-86412935D01*
X133087272Y-86406770D01*
X133006567Y-86289344D01*
X133006564Y-86289341D01*
X133002330Y-86283180D01*
X132884775Y-86178442D01*
X132745630Y-86104768D01*
X132592927Y-86066412D01*
X132539022Y-86066130D01*
X132441648Y-86065620D01*
X132374712Y-86045585D01*
X132354616Y-86029303D01*
X132347474Y-86022161D01*
X132332347Y-86003432D01*
X132331406Y-86002398D01*
X132325848Y-85993790D01*
X132299721Y-85973193D01*
X132295318Y-85969280D01*
X132295259Y-85969350D01*
X132291356Y-85966043D01*
X132287738Y-85962425D01*
X132272196Y-85951319D01*
X132267548Y-85947830D01*
X132227676Y-85916397D01*
X132219127Y-85913395D01*
X132211757Y-85908128D01*
X132201938Y-85905192D01*
X132201937Y-85905191D01*
X132176470Y-85897575D01*
X132117881Y-85859507D01*
X132089174Y-85795808D01*
X132087999Y-85778774D01*
X132087999Y-85752624D01*
X132081351Y-85691420D01*
X132031026Y-85557176D01*
X132003301Y-85520182D01*
X131950341Y-85449519D01*
X131945046Y-85442454D01*
X131937000Y-85436424D01*
X131837391Y-85361770D01*
X131837389Y-85361769D01*
X131830324Y-85356474D01*
X131696080Y-85306149D01*
X131634877Y-85299500D01*
X131325047Y-85299500D01*
X131015124Y-85299501D01*
X130953920Y-85306149D01*
X130819676Y-85356474D01*
X130812611Y-85361769D01*
X130812609Y-85361770D01*
X130713000Y-85436424D01*
X130704954Y-85442454D01*
X130699659Y-85449519D01*
X130646700Y-85520182D01*
X130618974Y-85557176D01*
X130568649Y-85691420D01*
X130562000Y-85752623D01*
X130562001Y-86747376D01*
X130568649Y-86808580D01*
X130618974Y-86942824D01*
X130624269Y-86949889D01*
X130624270Y-86949891D01*
X130647003Y-86980223D01*
X130671456Y-87045674D01*
X130656642Y-87113955D01*
X130604650Y-87164777D01*
X130532179Y-87202182D01*
X130413534Y-87305683D01*
X130323001Y-87434498D01*
X130265809Y-87581189D01*
X130245258Y-87737288D01*
X130246078Y-87744716D01*
X130246078Y-87744719D01*
X130251755Y-87796141D01*
X130239546Y-87864935D01*
X130216185Y-87897428D01*
X129400159Y-88713454D01*
X129338836Y-88746939D01*
X129269144Y-88741955D01*
X129213252Y-88700139D01*
X129137841Y-88599519D01*
X129132546Y-88592454D01*
X129037784Y-88521433D01*
X129024891Y-88511770D01*
X129024889Y-88511769D01*
X129017824Y-88506474D01*
X129009555Y-88503374D01*
X129009551Y-88503372D01*
X128968472Y-88487972D01*
X128912609Y-88446007D01*
X128888301Y-88380502D01*
X128888000Y-88371863D01*
X128888000Y-87282448D01*
X128907685Y-87215409D01*
X128960489Y-87169654D01*
X129029647Y-87159710D01*
X129055526Y-87166338D01*
X129121641Y-87191123D01*
X129121646Y-87191124D01*
X129128920Y-87193851D01*
X129190123Y-87200500D01*
X129499953Y-87200500D01*
X129809876Y-87200499D01*
X129871080Y-87193851D01*
X129987692Y-87150136D01*
X129997055Y-87146626D01*
X129997056Y-87146626D01*
X130005324Y-87143526D01*
X130012389Y-87138231D01*
X130012391Y-87138230D01*
X130112981Y-87062841D01*
X130120046Y-87057546D01*
X130134113Y-87038777D01*
X130200730Y-86949891D01*
X130200731Y-86949889D01*
X130206026Y-86942824D01*
X130256351Y-86808580D01*
X130263000Y-86747377D01*
X130262999Y-85752624D01*
X130256351Y-85691420D01*
X130206026Y-85557176D01*
X130178301Y-85520182D01*
X130125341Y-85449519D01*
X130120046Y-85442454D01*
X130112000Y-85436424D01*
X130012391Y-85361770D01*
X130012389Y-85361769D01*
X130005324Y-85356474D01*
X129871080Y-85306149D01*
X129809877Y-85299500D01*
X129500047Y-85299500D01*
X129190124Y-85299501D01*
X129128920Y-85306149D01*
X129121648Y-85308875D01*
X129121644Y-85308876D01*
X129055526Y-85333662D01*
X128985843Y-85338762D01*
X128924464Y-85305379D01*
X128890878Y-85244111D01*
X128888000Y-85217552D01*
X128888000Y-84725785D01*
X128890547Y-84701849D01*
X128890613Y-84700454D01*
X128892770Y-84690434D01*
X128891566Y-84680259D01*
X128891566Y-84680254D01*
X128888860Y-84657391D01*
X128888513Y-84651514D01*
X128888421Y-84651522D01*
X128888000Y-84646424D01*
X128888000Y-84641307D01*
X128887160Y-84636260D01*
X128887159Y-84636249D01*
X128884867Y-84622481D01*
X128884044Y-84616698D01*
X128878078Y-84566292D01*
X128881934Y-84565836D01*
X128882069Y-84515548D01*
X128884356Y-84509354D01*
X128884324Y-84509343D01*
X128892866Y-84483666D01*
X128932706Y-84426268D01*
X128997253Y-84399520D01*
X129066014Y-84411916D01*
X129117159Y-84459519D01*
X129127285Y-84481056D01*
X129128504Y-84484465D01*
X129129689Y-84488709D01*
X129187372Y-84619802D01*
X129225638Y-84681279D01*
X129233334Y-84690434D01*
X129314954Y-84787535D01*
X129314959Y-84787540D01*
X129317795Y-84790914D01*
X129371780Y-84839182D01*
X129389988Y-84851302D01*
X129434535Y-84880955D01*
X129491005Y-84918545D01*
X129494983Y-84920442D01*
X129494984Y-84920443D01*
X129516281Y-84930601D01*
X129556366Y-84949721D01*
X129693072Y-84992431D01*
X129728814Y-84998220D01*
X129760208Y-85003305D01*
X129760211Y-85003305D01*
X129764556Y-85004009D01*
X129768959Y-85004090D01*
X129768962Y-85004090D01*
X129852602Y-85005623D01*
X129907755Y-85006634D01*
X129912135Y-85006089D01*
X129916536Y-85005856D01*
X129916541Y-85005951D01*
X129925288Y-85005408D01*
X130350000Y-85005408D01*
X130355976Y-85004219D01*
X130355979Y-85004219D01*
X130404213Y-84994624D01*
X130447740Y-84985966D01*
X130500025Y-84951031D01*
X130520448Y-84937385D01*
X130530601Y-84930601D01*
X130538657Y-84918545D01*
X130579180Y-84857896D01*
X130585966Y-84847740D01*
X130605408Y-84750000D01*
X130605408Y-84323214D01*
X130606423Y-84307383D01*
X130606464Y-84307062D01*
X130606859Y-84304716D01*
X130610380Y-84265467D01*
X130610531Y-84253125D01*
X130607970Y-84213792D01*
X130606660Y-84204643D01*
X130605408Y-84187065D01*
X130605408Y-83823214D01*
X130606423Y-83807383D01*
X130606464Y-83807062D01*
X130606859Y-83804716D01*
X130610380Y-83765467D01*
X130610531Y-83753125D01*
X130607970Y-83713792D01*
X130606660Y-83704643D01*
X130605408Y-83687065D01*
X130605408Y-83250000D01*
X130585966Y-83152260D01*
X130530601Y-83069399D01*
X130447740Y-83014034D01*
X130403168Y-83005168D01*
X130355979Y-82995781D01*
X130355976Y-82995781D01*
X130350000Y-82994592D01*
X129859220Y-82994592D01*
X129858462Y-82994590D01*
X129856435Y-82994578D01*
X129783004Y-82994129D01*
X129778639Y-82994727D01*
X129778638Y-82994727D01*
X129770944Y-82995781D01*
X129711259Y-83003957D01*
X129670388Y-83015638D01*
X129577790Y-83042102D01*
X129577787Y-83042103D01*
X129573550Y-83043314D01*
X129569526Y-83045114D01*
X129511474Y-83071081D01*
X129511471Y-83071082D01*
X129507446Y-83072883D01*
X129503717Y-83075236D01*
X129503711Y-83075239D01*
X129390048Y-83146955D01*
X129390043Y-83146959D01*
X129386318Y-83149309D01*
X129331169Y-83196245D01*
X129236361Y-83303596D01*
X129196605Y-83364119D01*
X129194728Y-83368117D01*
X129137998Y-83488947D01*
X129135736Y-83493764D01*
X129134447Y-83497981D01*
X129134446Y-83497983D01*
X129122593Y-83536753D01*
X129084169Y-83595108D01*
X129020295Y-83623426D01*
X129004011Y-83624500D01*
X128942129Y-83624500D01*
X128875090Y-83604815D01*
X128832643Y-83558713D01*
X128802067Y-83501206D01*
X128802064Y-83501201D01*
X128799218Y-83495849D01*
X128669011Y-83336200D01*
X128572181Y-83256095D01*
X128514946Y-83208746D01*
X128514945Y-83208745D01*
X128510275Y-83204882D01*
X128329055Y-83106897D01*
X128319991Y-83104091D01*
X128138046Y-83047770D01*
X128138047Y-83047770D01*
X128132254Y-83045977D01*
X127927369Y-83024443D01*
X127921336Y-83024992D01*
X127921332Y-83024992D01*
X127795721Y-83036424D01*
X127722203Y-83043114D01*
X127716390Y-83044825D01*
X127716389Y-83044825D01*
X127598397Y-83079552D01*
X127524572Y-83101280D01*
X127440819Y-83145065D01*
X127347374Y-83193917D01*
X127347370Y-83193920D01*
X127342002Y-83196726D01*
X127337279Y-83200523D01*
X127337278Y-83200524D01*
X127268162Y-83256095D01*
X127181447Y-83325815D01*
X127049024Y-83483630D01*
X126949776Y-83664162D01*
X126947942Y-83669944D01*
X126947941Y-83669946D01*
X126905190Y-83804716D01*
X126887484Y-83860532D01*
X126864520Y-84065262D01*
X126881759Y-84270553D01*
X126938544Y-84468586D01*
X127032712Y-84651818D01*
X127036480Y-84656572D01*
X127130448Y-84775130D01*
X127160677Y-84813270D01*
X127165296Y-84817201D01*
X127312950Y-84942865D01*
X127312955Y-84942869D01*
X127317564Y-84946791D01*
X127443650Y-85017258D01*
X127492566Y-85067147D01*
X127506746Y-85135562D01*
X127481686Y-85200783D01*
X127425344Y-85242102D01*
X127383155Y-85249500D01*
X126917233Y-85249501D01*
X126902624Y-85249501D01*
X126841420Y-85256149D01*
X126707176Y-85306474D01*
X126700111Y-85311769D01*
X126700109Y-85311770D01*
X126633395Y-85361770D01*
X126592454Y-85392454D01*
X126587159Y-85399519D01*
X126516718Y-85493508D01*
X126506474Y-85507176D01*
X126456149Y-85641420D01*
X126449500Y-85702623D01*
X126449501Y-86697376D01*
X126456149Y-86758580D01*
X126506474Y-86892824D01*
X126511770Y-86899890D01*
X126511773Y-86899896D01*
X126590485Y-87004920D01*
X126614939Y-87070371D01*
X126614199Y-87095470D01*
X126594758Y-87243138D01*
X126595578Y-87250566D01*
X126595578Y-87250568D01*
X126604164Y-87328335D01*
X126612035Y-87399633D01*
X126614601Y-87406645D01*
X126614602Y-87406649D01*
X126627013Y-87440562D01*
X126666143Y-87547490D01*
X126670314Y-87553697D01*
X126753958Y-87678172D01*
X126752143Y-87679392D01*
X126776541Y-87733080D01*
X126766470Y-87802220D01*
X126720618Y-87854939D01*
X126653771Y-87874500D01*
X124390785Y-87874500D01*
X124366859Y-87871953D01*
X124365451Y-87871887D01*
X124355434Y-87869730D01*
X124345259Y-87870934D01*
X124345254Y-87870934D01*
X124322391Y-87873640D01*
X124316514Y-87873987D01*
X124316522Y-87874079D01*
X124311427Y-87874500D01*
X124306307Y-87874500D01*
X124301260Y-87875340D01*
X124301249Y-87875341D01*
X124287481Y-87877633D01*
X124281698Y-87878456D01*
X124241470Y-87883217D01*
X124241463Y-87883219D01*
X124231291Y-87884423D01*
X124223122Y-87888346D01*
X124214187Y-87889833D01*
X124205172Y-87894697D01*
X124205167Y-87894699D01*
X124169533Y-87913926D01*
X124164335Y-87916575D01*
X124118601Y-87938537D01*
X124114369Y-87942094D01*
X124112459Y-87944004D01*
X124110557Y-87945749D01*
X124110492Y-87945784D01*
X124110376Y-87945658D01*
X124109826Y-87946143D01*
X124104171Y-87949194D01*
X124097211Y-87956723D01*
X124097210Y-87956724D01*
X124067947Y-87988381D01*
X124064572Y-87991891D01*
X123638235Y-88418228D01*
X123576912Y-88451713D01*
X123537162Y-88453822D01*
X123527068Y-88452726D01*
X123497377Y-88449500D01*
X123187547Y-88449500D01*
X122877624Y-88449501D01*
X122816420Y-88456149D01*
X122731531Y-88487972D01*
X122690451Y-88503372D01*
X122682176Y-88506474D01*
X122675111Y-88511769D01*
X122675109Y-88511770D01*
X122662216Y-88521433D01*
X122567454Y-88592454D01*
X122562159Y-88599519D01*
X122502125Y-88679622D01*
X122481474Y-88707176D01*
X122431149Y-88841420D01*
X122424500Y-88902623D01*
X121514044Y-88902623D01*
X121600481Y-88837841D01*
X121607546Y-88832546D01*
X121653022Y-88771868D01*
X121688230Y-88724891D01*
X121688231Y-88724889D01*
X121693526Y-88717824D01*
X121696626Y-88709555D01*
X121696628Y-88709551D01*
X121707848Y-88679622D01*
X121749813Y-88623759D01*
X121815318Y-88599451D01*
X121825904Y-88599165D01*
X121916670Y-88600591D01*
X121916673Y-88600591D01*
X121924140Y-88600708D01*
X121931421Y-88599040D01*
X121931425Y-88599040D01*
X122070326Y-88567227D01*
X122077613Y-88565558D01*
X122218270Y-88494815D01*
X122223951Y-88489963D01*
X122223954Y-88489961D01*
X122332311Y-88397415D01*
X122332312Y-88397414D01*
X122337993Y-88392562D01*
X122359698Y-88362357D01*
X122409317Y-88293304D01*
X122429869Y-88264703D01*
X122488595Y-88118618D01*
X122510779Y-87962743D01*
X122510923Y-87949020D01*
X122504680Y-87897428D01*
X122492907Y-87800139D01*
X122492906Y-87800135D01*
X122492008Y-87792714D01*
X122478843Y-87757873D01*
X122438999Y-87652428D01*
X122438997Y-87652425D01*
X122436355Y-87645432D01*
X122397298Y-87588604D01*
X122351413Y-87521841D01*
X122351410Y-87521838D01*
X122347176Y-87515677D01*
X122272656Y-87449282D01*
X122235697Y-87389988D01*
X122231145Y-87356699D01*
X122231145Y-85493138D01*
X124094758Y-85493138D01*
X124095578Y-85500566D01*
X124095578Y-85500568D01*
X124101828Y-85557176D01*
X124112035Y-85649633D01*
X124114601Y-85656645D01*
X124114602Y-85656649D01*
X124131427Y-85702624D01*
X124166143Y-85797490D01*
X124253958Y-85928172D01*
X124291602Y-85962425D01*
X124364878Y-86029102D01*
X124364882Y-86029105D01*
X124370410Y-86034135D01*
X124376980Y-86037702D01*
X124376981Y-86037703D01*
X124433210Y-86068233D01*
X124508776Y-86109262D01*
X124531966Y-86115346D01*
X124591814Y-86151395D01*
X124622673Y-86214081D01*
X124624500Y-86235286D01*
X124624501Y-86553220D01*
X124624501Y-86697376D01*
X124631149Y-86758580D01*
X124681474Y-86892824D01*
X124686769Y-86899889D01*
X124686770Y-86899891D01*
X124746976Y-86980223D01*
X124767454Y-87007546D01*
X124774519Y-87012841D01*
X124875109Y-87088230D01*
X124875111Y-87088231D01*
X124882176Y-87093526D01*
X124890444Y-87096626D01*
X124890445Y-87096626D01*
X124916579Y-87106423D01*
X125016420Y-87143851D01*
X125077623Y-87150500D01*
X125387453Y-87150500D01*
X125697376Y-87150499D01*
X125758580Y-87143851D01*
X125863630Y-87104470D01*
X125884555Y-87096626D01*
X125884556Y-87096626D01*
X125892824Y-87093526D01*
X125899889Y-87088231D01*
X125899891Y-87088230D01*
X126000481Y-87012841D01*
X126007546Y-87007546D01*
X126028024Y-86980223D01*
X126088230Y-86899891D01*
X126088231Y-86899889D01*
X126093526Y-86892824D01*
X126143851Y-86758580D01*
X126150500Y-86697377D01*
X126150499Y-85702624D01*
X126143851Y-85641420D01*
X126093526Y-85507176D01*
X126083283Y-85493508D01*
X126012841Y-85399519D01*
X126007546Y-85392454D01*
X125966605Y-85361770D01*
X125899891Y-85311770D01*
X125899889Y-85311769D01*
X125892824Y-85306474D01*
X125884554Y-85303374D01*
X125884549Y-85303371D01*
X125807023Y-85274308D01*
X125751159Y-85232344D01*
X125726851Y-85166839D01*
X125741817Y-85098591D01*
X125794641Y-85047518D01*
X125875738Y-85006553D01*
X125945610Y-84971258D01*
X126107951Y-84844424D01*
X126111907Y-84839840D01*
X126111911Y-84839837D01*
X126238602Y-84693062D01*
X126242564Y-84688472D01*
X126246651Y-84681279D01*
X126341327Y-84514618D01*
X126344323Y-84509344D01*
X126409351Y-84313863D01*
X126414823Y-84270553D01*
X126434736Y-84112919D01*
X126434736Y-84112915D01*
X126435171Y-84109474D01*
X126435583Y-84080000D01*
X126415480Y-83874970D01*
X126382419Y-83765467D01*
X126357688Y-83683555D01*
X126355935Y-83677749D01*
X126292643Y-83558713D01*
X126262065Y-83501203D01*
X126262064Y-83501201D01*
X126259218Y-83495849D01*
X126129011Y-83336200D01*
X126032181Y-83256095D01*
X125974946Y-83208746D01*
X125974945Y-83208745D01*
X125970275Y-83204882D01*
X125789055Y-83106897D01*
X125779991Y-83104091D01*
X125598046Y-83047770D01*
X125598047Y-83047770D01*
X125592254Y-83045977D01*
X125387369Y-83024443D01*
X125381336Y-83024992D01*
X125381332Y-83024992D01*
X125255721Y-83036424D01*
X125182203Y-83043114D01*
X125176390Y-83044825D01*
X125176389Y-83044825D01*
X125058397Y-83079552D01*
X124984572Y-83101280D01*
X124900819Y-83145065D01*
X124807374Y-83193917D01*
X124807370Y-83193920D01*
X124802002Y-83196726D01*
X124797279Y-83200523D01*
X124797278Y-83200524D01*
X124728162Y-83256095D01*
X124641447Y-83325815D01*
X124509024Y-83483630D01*
X124409776Y-83664162D01*
X124407942Y-83669944D01*
X124407941Y-83669946D01*
X124365190Y-83804716D01*
X124347484Y-83860532D01*
X124324520Y-84065262D01*
X124341759Y-84270553D01*
X124398544Y-84468586D01*
X124492712Y-84651818D01*
X124539117Y-84710367D01*
X124565331Y-84775130D01*
X124552369Y-84843787D01*
X124498811Y-84897575D01*
X124388324Y-84954602D01*
X124388322Y-84954603D01*
X124381679Y-84958032D01*
X124263034Y-85061533D01*
X124172501Y-85190348D01*
X124169785Y-85197313D01*
X124169785Y-85197314D01*
X124161895Y-85217552D01*
X124115309Y-85337039D01*
X124094758Y-85493138D01*
X122231145Y-85493138D01*
X122231145Y-85271254D01*
X122250830Y-85204215D01*
X122267464Y-85183573D01*
X122353358Y-85097679D01*
X122414681Y-85064194D01*
X122479357Y-85067429D01*
X122572457Y-85097679D01*
X122613329Y-85110959D01*
X122619347Y-85111677D01*
X122619349Y-85111677D01*
X122742574Y-85126370D01*
X122817894Y-85135351D01*
X122823938Y-85134886D01*
X122823939Y-85134886D01*
X122885266Y-85130167D01*
X123023300Y-85119546D01*
X123108596Y-85095731D01*
X123215885Y-85065776D01*
X123215889Y-85065774D01*
X123221725Y-85064145D01*
X123405610Y-84971258D01*
X123567951Y-84844424D01*
X123571907Y-84839840D01*
X123571911Y-84839837D01*
X123698602Y-84693062D01*
X123702564Y-84688472D01*
X123706651Y-84681279D01*
X123801327Y-84514618D01*
X123804323Y-84509344D01*
X123869351Y-84313863D01*
X123874823Y-84270553D01*
X123894736Y-84112919D01*
X123894736Y-84112915D01*
X123895171Y-84109474D01*
X123895583Y-84080000D01*
X123875480Y-83874970D01*
X123842419Y-83765467D01*
X123817688Y-83683555D01*
X123815935Y-83677749D01*
X123752643Y-83558713D01*
X123722065Y-83501203D01*
X123722064Y-83501201D01*
X123719218Y-83495849D01*
X123589011Y-83336200D01*
X123492181Y-83256095D01*
X123434946Y-83208746D01*
X123434945Y-83208745D01*
X123430275Y-83204882D01*
X123249055Y-83106897D01*
X123239991Y-83104091D01*
X123058046Y-83047770D01*
X123058047Y-83047770D01*
X123052254Y-83045977D01*
X122847369Y-83024443D01*
X122841336Y-83024992D01*
X122841332Y-83024992D01*
X122715721Y-83036424D01*
X122642203Y-83043114D01*
X122636390Y-83044825D01*
X122636389Y-83044825D01*
X122518397Y-83079552D01*
X122444572Y-83101280D01*
X122360819Y-83145065D01*
X122267374Y-83193917D01*
X122267370Y-83193920D01*
X122262002Y-83196726D01*
X122257279Y-83200523D01*
X122257278Y-83200524D01*
X122188162Y-83256095D01*
X122101447Y-83325815D01*
X121969024Y-83483630D01*
X121869776Y-83664162D01*
X121867942Y-83669944D01*
X121867941Y-83669946D01*
X121825190Y-83804716D01*
X121807484Y-83860532D01*
X121784520Y-84065262D01*
X121801759Y-84270553D01*
X121852191Y-84446430D01*
X121851747Y-84516296D01*
X121820675Y-84568288D01*
X121627806Y-84761157D01*
X121609077Y-84776284D01*
X121608043Y-84777225D01*
X121599435Y-84782783D01*
X121593093Y-84790828D01*
X121578838Y-84808910D01*
X121574925Y-84813313D01*
X121574995Y-84813372D01*
X121571688Y-84817275D01*
X121568070Y-84820893D01*
X121565096Y-84825055D01*
X121556966Y-84836432D01*
X121553475Y-84841083D01*
X121522042Y-84880955D01*
X121519040Y-84889504D01*
X121513773Y-84896874D01*
X121506725Y-84920443D01*
X121499239Y-84945473D01*
X121497433Y-84951031D01*
X121489371Y-84973990D01*
X121480622Y-84998903D01*
X121480145Y-85004410D01*
X121480145Y-85007094D01*
X121480032Y-85009696D01*
X121480010Y-85009770D01*
X121479841Y-85009763D01*
X121479795Y-85010488D01*
X121477955Y-85016642D01*
X121478357Y-85026881D01*
X121478357Y-85026884D01*
X121480049Y-85069936D01*
X121480145Y-85074804D01*
X121480145Y-86906155D01*
X121460460Y-86973194D01*
X121407656Y-87018949D01*
X121342753Y-87029430D01*
X121306007Y-87025438D01*
X121300710Y-87024862D01*
X121300708Y-87024862D01*
X121297377Y-87024500D01*
X121000045Y-87024500D01*
X120702624Y-87024501D01*
X120641420Y-87031149D01*
X120507176Y-87081474D01*
X120500111Y-87086769D01*
X120500109Y-87086770D01*
X120410412Y-87153995D01*
X120392454Y-87167454D01*
X120387159Y-87174519D01*
X120320304Y-87263723D01*
X120306474Y-87282176D01*
X120303374Y-87290444D01*
X120303374Y-87290445D01*
X120297662Y-87305683D01*
X120256149Y-87416420D01*
X120249500Y-87477623D01*
X119899438Y-87477623D01*
X119890103Y-87400479D01*
X119886214Y-87385167D01*
X119836786Y-87260326D01*
X119828561Y-87245730D01*
X119747675Y-87139167D01*
X119735833Y-87127325D01*
X119629270Y-87046439D01*
X119614674Y-87038214D01*
X119489833Y-86988786D01*
X119474521Y-86984897D01*
X119396433Y-86975448D01*
X119389004Y-86975000D01*
X119267830Y-86975000D01*
X119252831Y-86979404D01*
X119251644Y-86980774D01*
X119250000Y-86988332D01*
X119250000Y-87832170D01*
X118950000Y-87832170D01*
X118950000Y-86992830D01*
X118945596Y-86977831D01*
X118944226Y-86976644D01*
X118936668Y-86975000D01*
X118810996Y-86975000D01*
X118803567Y-86975448D01*
X118725479Y-86984897D01*
X118710167Y-86988786D01*
X118585326Y-87038214D01*
X118570730Y-87046439D01*
X118464167Y-87127325D01*
X118452325Y-87139167D01*
X118371439Y-87245730D01*
X118363214Y-87260326D01*
X118313786Y-87385167D01*
X118309897Y-87400479D01*
X118300448Y-87478567D01*
X118300000Y-87485996D01*
X118300000Y-87832170D01*
X116500000Y-87832170D01*
X116500000Y-84065262D01*
X119244520Y-84065262D01*
X119261759Y-84270553D01*
X119318544Y-84468586D01*
X119412712Y-84651818D01*
X119416480Y-84656572D01*
X119510448Y-84775130D01*
X119540677Y-84813270D01*
X119545296Y-84817201D01*
X119692950Y-84942865D01*
X119692955Y-84942869D01*
X119697564Y-84946791D01*
X119877398Y-85047297D01*
X120073329Y-85110959D01*
X120079347Y-85111677D01*
X120079349Y-85111677D01*
X120202574Y-85126370D01*
X120277894Y-85135351D01*
X120283938Y-85134886D01*
X120283939Y-85134886D01*
X120345266Y-85130167D01*
X120483300Y-85119546D01*
X120568596Y-85095731D01*
X120675885Y-85065776D01*
X120675889Y-85065774D01*
X120681725Y-85064145D01*
X120865610Y-84971258D01*
X121027951Y-84844424D01*
X121031907Y-84839840D01*
X121031911Y-84839837D01*
X121158602Y-84693062D01*
X121162564Y-84688472D01*
X121166651Y-84681279D01*
X121261327Y-84514618D01*
X121264323Y-84509344D01*
X121329351Y-84313863D01*
X121334823Y-84270553D01*
X121354736Y-84112919D01*
X121354736Y-84112915D01*
X121355171Y-84109474D01*
X121355583Y-84080000D01*
X121335480Y-83874970D01*
X121302419Y-83765467D01*
X121277688Y-83683555D01*
X121275935Y-83677749D01*
X121212643Y-83558713D01*
X121182065Y-83501203D01*
X121182064Y-83501201D01*
X121179218Y-83495849D01*
X121049011Y-83336200D01*
X120952181Y-83256095D01*
X120894946Y-83208746D01*
X120894945Y-83208745D01*
X120890275Y-83204882D01*
X120709055Y-83106897D01*
X120699991Y-83104091D01*
X120518046Y-83047770D01*
X120518047Y-83047770D01*
X120512254Y-83045977D01*
X120307369Y-83024443D01*
X120301336Y-83024992D01*
X120301332Y-83024992D01*
X120175721Y-83036424D01*
X120102203Y-83043114D01*
X120096390Y-83044825D01*
X120096389Y-83044825D01*
X119978397Y-83079552D01*
X119904572Y-83101280D01*
X119820819Y-83145065D01*
X119727374Y-83193917D01*
X119727370Y-83193920D01*
X119722002Y-83196726D01*
X119717279Y-83200523D01*
X119717278Y-83200524D01*
X119648162Y-83256095D01*
X119561447Y-83325815D01*
X119429024Y-83483630D01*
X119329776Y-83664162D01*
X119327942Y-83669944D01*
X119327941Y-83669946D01*
X119285190Y-83804716D01*
X119267484Y-83860532D01*
X119244520Y-84065262D01*
X116500000Y-84065262D01*
X116500000Y-83536835D01*
X116502383Y-83512644D01*
X116502515Y-83511980D01*
X116504898Y-83500000D01*
X116502515Y-83488021D01*
X116502515Y-83475807D01*
X116503149Y-83475807D01*
X116502486Y-83465229D01*
X116509982Y-83360430D01*
X116517180Y-83259789D01*
X116519697Y-83242282D01*
X116522740Y-83228297D01*
X116569001Y-83015638D01*
X116573985Y-82998662D01*
X116655046Y-82781330D01*
X116662396Y-82765237D01*
X116773557Y-82561660D01*
X116783122Y-82546777D01*
X116922123Y-82361093D01*
X116933709Y-82347722D01*
X117097722Y-82183709D01*
X117111093Y-82172123D01*
X117296777Y-82033122D01*
X117311660Y-82023557D01*
X117515237Y-81912396D01*
X117531330Y-81905046D01*
X117748662Y-81823985D01*
X117765638Y-81819001D01*
X117794272Y-81812772D01*
X117992287Y-81769696D01*
X118009789Y-81767180D01*
X118215232Y-81752486D01*
X118225807Y-81753149D01*
X118225807Y-81752515D01*
X118238021Y-81752515D01*
X118250000Y-81754898D01*
X118261980Y-81752515D01*
X118262644Y-81752383D01*
X118286835Y-81750000D01*
X134048951Y-81750000D01*
X134073142Y-81752383D01*
G37*
%TD.AperFunction*%
%TD*%
M02*
